<svg width="222" height="28" viewBox="0 0 222 28" fill="none" xmlns="http://www.w3.org/2000/svg">
<g clip-path="url(#clip0_246_11665)">
<g style="mix-blend-mode:multiply">
<path d="M11.3411 24.8798H17.0591C15.7813 23.3954 15.0354 21.5271 14.9396 19.5708C14.8438 17.6145 15.4036 15.6822 16.5303 14.0801C17.657 12.478 19.2861 11.2977 21.1595 10.7262C23.0329 10.1548 25.0435 10.2249 26.8725 10.9255C27.4553 9.1039 28.4305 7.43228 29.7293 6.02838C31.0281 4.62448 32.619 3.52247 34.3898 2.79998C32.831 1.48045 30.9731 0.562152 28.9781 0.125099C26.983 -0.311954 24.9114 -0.254498 22.9436 0.292462C20.9759 0.839421 19.1717 1.85929 17.6884 3.26319C16.2051 4.6671 15.0876 6.41244 14.4333 8.34715C12.5152 7.77553 10.4565 7.90356 8.624 8.70842C6.79151 9.51328 5.30435 10.9427 4.42755 12.7418H1.79351C1.47158 12.7418 1.16283 12.8697 0.935185 13.0974C0.707542 13.325 0.579654 13.6338 0.579654 13.9557C0.579654 14.2776 0.707542 14.5864 0.935185 14.814C1.16283 15.0417 1.47158 15.1696 1.79351 15.1696H10.126C10.2877 15.1659 10.4485 15.1945 10.5989 15.2539C10.7494 15.3132 10.8865 15.402 11.0022 15.515C11.1178 15.6281 11.2097 15.7631 11.2725 15.9122C11.3352 16.0613 11.3675 16.2214 11.3675 16.3831C11.3675 16.5448 11.3352 16.7049 11.2725 16.854C11.2097 17.0031 11.1178 17.1381 11.0022 17.2512C10.8865 17.3642 10.7494 17.453 10.5989 17.5124C10.4485 17.5717 10.2877 17.6003 10.126 17.5966H1.26569C0.943757 17.5966 0.635007 17.7245 0.407365 17.9522C0.179722 18.1798 0.0518341 18.4886 0.0518341 18.8105C0.0518341 19.1324 0.179722 19.4412 0.407365 19.6688C0.635007 19.8965 0.943757 20.0244 1.26569 20.0244H10.126C10.4479 20.0244 10.7567 20.1522 10.9843 20.3799C11.2119 20.6075 11.3398 20.9163 11.3398 21.2382C11.3398 21.5601 11.2119 21.8689 10.9843 22.0965C10.7567 22.3242 10.4479 22.4521 10.126 22.4521H2.5441C2.22217 22.4521 1.91342 22.58 1.68578 22.8076C1.45813 23.0352 1.33025 23.344 1.33025 23.6659C1.33025 23.9879 1.45813 24.2966 1.68578 24.5243C1.91342 24.7519 2.22217 24.8798 2.5441 24.8798H11.3411Z" fill="#1BBBE9"/>
</g>
<g style="mix-blend-mode:multiply">
<path d="M41.2673 1.8379C39.5811 1.83646 37.9107 2.16319 36.3492 2.79987C37.739 3.97406 38.8556 5.43766 39.6208 7.08833C40.386 8.739 40.7814 10.5369 40.7794 12.3563C40.7794 19.2724 35.1727 24.879 28.2566 24.879H19.0166C19.8412 25.8386 20.8635 26.6084 22.0134 27.1358C23.1634 27.6632 24.4138 27.9357 25.6789 27.9346H41.2673C48.4739 27.9346 54.3134 22.0931 54.3134 14.8865C54.3134 7.67998 48.4739 1.8379 41.2673 1.8379Z" fill="#622181"/>
</g>
<g style="mix-blend-mode:multiply">
<path d="M68.2253 5.37012C70.2817 5.37012 72.0093 6.38527 73.1249 7.52699L71.0685 9.83783C70.2308 9.07581 69.444 8.59434 68.2762 8.59434C65.9666 8.59434 64.1647 10.5985 64.1647 13.9245C64.1647 17.3262 65.7631 19.3056 68.1744 19.3056C69.5458 19.3056 70.51 18.7224 71.3229 17.8338L73.3793 20.0924C72.7391 20.863 71.9354 21.4815 71.0266 21.9031C70.1178 22.3246 69.1266 22.5387 68.1248 22.5299C63.8345 22.5299 60.3311 19.6175 60.3311 14.0511C60.3311 8.56824 63.9611 5.37012 68.2253 5.37012Z" fill="#1BBBE9"/>
</g>
<g style="mix-blend-mode:multiply">
<path d="M75.8402 5.67383H79.5968V19.077H86.1209V22.2268H75.8402V5.67383Z" fill="#1BBBE9"/>
</g>
<g style="mix-blend-mode:multiply">
<path d="M87.2378 13.8766C87.2378 8.46939 90.3094 5.37305 94.751 5.37305C99.2187 5.37305 102.265 8.49549 102.265 13.8766C102.265 19.2838 99.2187 22.5328 94.751 22.5328C90.3094 22.5302 87.2378 19.2812 87.2378 13.8766ZM98.4319 13.8766C98.4319 10.5767 97.011 8.59726 94.751 8.59726C92.5185 8.59726 91.0714 10.5767 91.0714 13.8766C91.0714 17.2026 92.5185 19.3086 94.751 19.3086C97.011 19.306 98.4319 17.2 98.4319 13.8766Z" fill="#1BBBE9"/>
</g>
<g style="mix-blend-mode:multiply">
<path d="M105.286 5.67383H109.018V14.9381C109.018 18.1871 110.033 19.304 111.889 19.304C113.744 19.304 114.834 18.1871 114.834 14.9381V5.67383H118.435V14.5584C118.435 20.1182 116.176 22.5295 111.886 22.5295C107.596 22.5295 105.286 20.1182 105.286 14.5584V5.67383Z" fill="#1BBBE9"/>
</g>
<g style="mix-blend-mode:multiply">
<path d="M122.193 5.67383H126.863C131.94 5.67383 135.189 8.18691 135.189 13.8733C135.189 19.5598 131.94 22.2242 127.091 22.2242H122.193V5.67383ZM126.661 19.2035C129.453 19.2035 131.358 17.8335 131.358 13.8733C131.358 9.9132 129.454 8.69449 126.661 8.69449H125.949V19.2035H126.661Z" fill="#1BBBE9"/>
</g>
<g style="mix-blend-mode:multiply">
<path d="M143.566 5.67383H149.607C153.211 5.67383 156.079 6.99431 156.079 11.0053C156.079 14.8885 153.109 16.6161 149.607 16.6161H147.322V22.2268H143.566V5.67383ZM149.379 13.645C151.434 13.645 152.424 12.7316 152.424 11.0053C152.424 9.27905 151.358 8.64361 149.379 8.64361H147.322V13.645H149.379Z" fill="#622181"/>
</g>
<g style="mix-blend-mode:multiply">
<path d="M167.884 22.2268L164.717 16.2599H162.68V22.2268H158.922V5.67383H164.888C168.391 5.67383 171.282 6.89253 171.282 10.8266C171.282 13.264 170.088 14.8128 168.337 15.5996L172.072 22.2268H167.884ZM162.68 13.2927H164.587C166.544 13.2927 167.607 12.455 167.607 10.8292C167.607 9.20338 166.544 8.64361 164.587 8.64361H162.68V13.2927Z" fill="#622181"/>
</g>
<g style="mix-blend-mode:multiply">
<path d="M173.748 13.8766C173.748 8.46939 176.818 5.37305 181.261 5.37305C185.729 5.37305 188.774 8.49549 188.774 13.8766C188.774 19.2838 185.729 22.5328 181.261 22.5328C176.818 22.5302 173.748 19.2812 173.748 13.8766ZM184.942 13.8766C184.942 10.5767 183.519 8.59726 181.261 8.59726C179.027 8.59726 177.58 10.5767 177.58 13.8766C177.58 17.2026 179.027 19.3086 181.261 19.3086C183.519 19.306 184.942 17.2 184.942 13.8766Z" fill="#622181"/>
</g>
<g style="mix-blend-mode:multiply">
<path d="M191.795 5.67383H195.527V14.9381C195.527 18.1871 196.542 19.304 198.397 19.304C200.253 19.304 201.341 18.1871 201.341 14.9381V5.67383H204.946V14.5584C204.946 20.1182 202.686 22.5295 198.397 22.5295C194.108 22.5295 191.796 20.1182 191.796 14.5584L191.795 5.67383Z" fill="#622181"/>
</g>
<g style="mix-blend-mode:multiply">
<path d="M208.701 5.67383H213.373C218.448 5.67383 221.699 8.18691 221.699 13.8733C221.699 19.5598 218.448 22.2242 213.601 22.2242H208.701V5.67383ZM213.169 19.2035C215.961 19.2035 217.866 17.8335 217.866 13.8733C217.866 9.9132 215.963 8.69449 213.169 8.69449H212.458V19.2035H213.169Z" fill="#622181"/>
</g>
</g>
<defs>
<clipPath id="clip0_246_11665">
<rect width="221.699" height="28" fill="white"/>
</clipPath>
</defs>
</svg>
