<?xml version="1.0" encoding="UTF-8"?>
<svg id="Layer_1" data-name="Layer 1" xmlns="http://www.w3.org/2000/svg" viewBox="0 0 356.19 532.62">
  <defs>
    <style>
      .cls-1 {
        fill: #343b44;
      }
    </style>
  </defs>
  <path class="cls-1" d="m301.03,164.6l-16.18,16.18c-8-2.15-16.39-3.29-25.08-3.29-22.16,0-42.57,7.49-58.86,20.05l-67.84,67.22s-.02-.02-.02.02c0,0-.04,0-.04.04,0,0-.02-.02-.02.02l-2.06,2.03-11.63,11.52-15.54,15.39-32.22,32.26c-16.63-4.44-31.49-13.2-43.3-25.01C10.79,283.56-.02,259.46,0,232.83,0,204.24,12.45,178.57,32.22,160.91L160.82,32.31C178.48,12.47,204.2,0,232.86,0c26.6-.02,50.72,10.81,68.17,28.22,17.44,17.47,28.24,41.57,28.24,68.19,0,26.62-10.81,50.72-28.26,68.17l.02.02Z"/>
  <g>
    <path class="cls-1" d="m327.96,205.73c-11.78-11.78-26.56-20.54-43.1-24.96-8-2.15-16.39-3.29-25.08-3.29-22.16,0-42.57,7.49-58.86,20.05l-67.78,67.16c-.43.34-.85.7-1.25,1.1-.36.36-.68.73-.99,1.11l-11.58,11.47-6.8,6.8s0,0,0,0l6.8-6.8-6.8,6.8s-.06.05-.09.08c-.03.03-.06.06-.08.09l-19.29,19.29s-.06.05-.09.08c-.03.03-.06.06-.08.09l-38.75,38.75s-.06.05-.09.08c-.03.03-.06.06-.09.09l-19.37,19.37c-5.39,5.39-5.39,14.08,0,19.46,5.37,5.37,14.08,5.39,19.46,0h0c5.35-5.35,14.05-5.36,19.42-.04.01.01.03.03.04.04.01.01.03.03.04.04,5.34,5.39,5.31,14.06-.04,19.42l-38.94,38.94c-5.37,5.37-5.37,14.09,0,19.46,5.39,5.39,14.09,5.37,19.46,0l19.32-19.32s0,0,0,0l-19.32,19.32,19.32-19.32s.1-.09.15-.14c.05-.05.09-.1.14-.15l19.18-19.18s.1-.09.15-.14c.05-.05.09-.1.14-.15l19.18-19.18s.1-.09.15-.14c.05-.05.09-.1.14-.15l19.18-19.18s.1-.09.15-.14c.02-.02.04-.05.07-.08,5.39-5.31,14.04-5.27,19.4.09s5.38,14,.07,19.39c-.02.02-.05.04-.07.06-.05.05-.08.1-.13.14l-19.19,19.19s-.1.08-.14.13c-.05.05-.09.1-.13.15l-19.19,19.19s-.1.08-.14.13c-.05.05-.09.1-.13.14l-19.34,19.34c-5.37,5.37-5.39,14.08,0,19.46,5.37,5.37,14.09,5.37,19.46,0h0l38.94-38.94c5.37-5.37,14.09-5.37,19.46,0,0,0,0,0,0,0,0,0,0,0,0,0,5.36,5.37,5.36,14.09,0,19.46l-19.46,19.46c-5.39,5.39-5.37,14.09,0,19.46,5,5,12.87,5.35,18.28,1.04.42-.31.8-.66,1.19-1.04.38-.38.73-.77,1.04-1.19h0l17.17-17.17c.43-.34.86-.7,1.25-1.1.03-.03.06-.07.09-.1l19.27-19.27s.07-.06.1-.09.06-.07.09-.1l19.27-19.27s.07-.06.1-.09c.03-.03.06-.07.09-.1l19.27-19.27s.07-.06.1-.09c.03-.03.06-.07.09-.1l19.27-19.27s.07-.06.1-.09c.4-.4.76-.82,1.1-1.25l58.71-58.71v-.04c17.45-17.45,28.24-41.53,28.24-68.15.02-26.6-10.77-50.72-28.22-68.17Zm-215.64,79.63s0,0,0,0l-19.28,19.28s0,0,0,0l19.29-19.29Zm-58.22,58.22l19.37-19.37,19.38-19.38s0,0,0,0l-38.75,38.75s0,0,0,0Zm19.51,97.26s0,0,0,0l19.17-19.17s0,0,0,0l-19.18,19.18Zm19.47-19.47l15.91-15.91-15.91,15.91s0,0,0,0Zm97.28,58.45c.36-.37.69-.75,1.01-1.15l17.11-17.11c.4-.31.78-.64,1.15-1.01l-19.27,19.27Zm19.46-19.46c.36-.37.69-.76,1.01-1.15l17.11-17.11c.4-.31.78-.64,1.15-1.01l-19.27,19.27Zm19.47-19.47c.36-.37.69-.76,1.01-1.15l17.11-17.11c.4-.31.78-.64,1.15-1.01l-19.27,19.27Zm38.74-38.74l-19.27,19.27c.36-.37.69-.75,1.01-1.15l17.11-17.11c.4-.31.78-.64,1.15-1.01Z"/>
    <path class="cls-1" d="m5.35,392.33c-5.38,5.38-5.38,14.09,0,19.47,5.38,5.38,14.09,5.38,19.47,0,5.38-5.38,5.38-14.09,0-19.47-5.38-5.38-14.09-5.38-19.47,0Z"/>
    <circle class="cls-1" cx="131.87" cy="518.86" r="13.76" transform="translate(-378.82 358.25) rotate(-58.28)"/>
  </g>
</svg>