<?xml version="1.0" encoding="UTF-8"?>
<svg id="Layer_1" data-name="Layer 1" xmlns="http://www.w3.org/2000/svg" viewBox="0 0 392.54 438.35">
  <defs>
    <style>
      .cls-1 {
        stroke-width: 0px;
      }
    </style>
  </defs>
  <path class="cls-1" d="m392.53,186.27c0-1.43.01-2.85-.08-4.27-1-15.97-11.35-26.68-26.61-27.57-7.3-.42-8.32-1.46-8.35-8.74-.05-12.26-.01-24.51-.02-36.77,0-5.04-1.45-9.39-4.84-13.29-25.66-29.42-51.59-58.59-77.14-88.1-2.95-3.41-5.91-6.84-10.77-7.53H50.07c-11.22,3.46-14.75,8.27-14.92,20.33-.04,2.85-.02,5.7-.02,8.55,0,38.91.02,77.82-.01,116.73,0,7.34-1.06,8.32-8.27,8.84-7.5.54-14.06,3.15-19.36,8.77C1.67,169.36.13,176.9.1,184.89c-.1,29.64-.04,59.29-.04,88.93,0,10.97-.19,21.95.07,32.92.37,16.23,9.85,26.8,25.43,28.69,9.45,1.15,9.55,1.25,9.57,10.66,0,4.99,0,9.98,0,14.96,0,17.67,0,35.35,0,53.02,0,1.85-.03,3.71.07,5.56.55,10.41,6.05,18.72,19.57,18.7,94.35-.16,188.7-.08,283.05-.07,1.71,0,3.4-.1,5.1-.38,6.96-1.14,12.01-5.84,13.64-12.67.77-3.22.92-6.47.92-9.76,0-23.66-.03-47.32,0-70.98.01-7.38.97-8.34,8.19-8.93,11.46-.94,20.05-6.16,24.59-17.01,1.95-4.65,2.27-9.67,2.27-14.69,0-39.19,0-78.39-.01-117.58ZM54.48,21.81c-.01-3.7.82-4.77,4.67-4.76,63.27.13,126.55.13,189.82,0,3.84,0,4.68,1.02,4.66,4.73-.17,26.79-.1,53.58-.08,80.37,0,8.58,2.94,11.49,11.63,11.5,22.8.01,45.6.08,68.4-.07,3.51-.02,4.6.87,4.52,4.47-.23,11.4-.25,22.8,0,34.2.08,3.72-1.19,4.4-4.61,4.39-45.75-.11-91.49-.07-137.24-.07-45.6,0-91.21-.04-136.81.08-3.81.01-5.01-.84-5-4.87.16-43.32.14-86.65.01-129.97Zm213.01,275.91c-5.98-.19-11.98-.28-17.95.03-3.32.17-4.02-1.09-4.12-4.08-.91-26.92-2.28-53.82-2.37-80.76,0-1.63,0-3.26-.93-4.91-2.97,10.32-5.83,20.67-8.95,30.94-5.38,17.69-10.98,35.32-16.34,53.01-.87,2.86-2.01,4.23-5.24,3.96-4.11-.33-8.28-.3-12.39,0-3.19.23-4.39-.96-5.19-3.98-7.32-27.63-15.75-54.97-21.98-83.1-.4,8.34-.82,16.69-1.2,25.03-.91,20.07-1.86,40.14-2.65,60.21-.11,2.67-.7,3.76-3.59,3.65-5.69-.22-11.4-.21-17.1,0-2.88.1-3.61-.85-3.42-3.64,1.35-20.04,2.56-40.09,3.83-60.14,1.01-15.92,2.12-31.84,3-47.77.16-2.91.97-3.92,3.96-3.87,9.12.17,18.24.22,27.36-.02,3.13-.08,4.04,1.21,4.84,3.89,7.17,24.14,14.32,48.28,19.34,73,.13.65.31,1.29.5,2.08,1.84-1.26,1.64-3.19,2-4.73,5.64-23.99,13.21-47.4,20.74-70.83.86-2.68,2.16-3.43,4.86-3.38,8.83.16,17.67.18,26.5,0,2.96-.06,3.83.88,3.98,3.8,1.24,24.19,2.66,48.37,3.99,72.55.65,11.81,1.17,23.62,1.93,35.42.18,2.82-.56,3.73-3.42,3.64Zm-233.66-.06c-.09-2.13,1.12-3.3,1.86-4.6,9.57-16.83,19.15-33.65,28.87-50.39,1.38-2.38,1.46-4.1.06-6.54-9.5-16.54-18.83-33.18-28.2-49.79-2.22-3.93-2.2-3.96,2.26-3.97,7.12-.02,14.25.14,21.37-.07,2.98-.09,4.57.82,5.83,3.6,4.85,10.76,9.96,21.41,14.98,32.1.65,1.38,1.33,2.75,2.3,4.77,2.16-5.16,3.99-9.76,5.99-14.29,3.45-7.81,7-15.57,10.51-23.35.65-1.44,1.2-2.8,3.26-2.79,8.95.07,17.9.03,26.88.03.33,2.04-.96,3.16-1.69,4.45-9.29,16.17-18.57,32.34-28.02,48.42-1.51,2.57-1.47,4.38.03,6.93,10.68,18.15,21.18,36.4,32.23,55.48-9.99,0-19.21-.04-28.43.03-2.14.01-2.47-1.65-3.14-2.97-5.74-11.45-11.42-22.93-17.15-34.38-.62-1.24-.92-2.71-2.28-3.6-5.57,12.31-11.27,24.5-16.56,36.87-1.44,3.38-3.31,4.24-6.7,4.15-8.07-.22-16.15-.07-24.26-.07Zm304.29,113.75c.03,3.93-1.26,4.68-4.87,4.68-91.32-.09-182.63-.09-273.95,0-3.67,0-4.86-.85-4.83-4.72.18-24.5.2-49.01-.01-73.51-.03-4.03,1.36-4.59,4.88-4.58,45.59.11,91.17.07,136.76.07s91.46.04,137.19-.08c3.59,0,4.87.67,4.84,4.62-.2,24.5-.19,49.01,0,73.51Zm25.07-131.49c-.25,4.83-.16,9.69-.03,14.53.06,2.28-.44,3.27-3.02,3.26-21.95-.09-43.9-.13-65.84.03-3.43.03-3.15-1.76-3.15-3.98.02-17.96.01-35.91.01-53.87,0-17.53.1-35.06-.08-52.59-.04-3.72.67-5.35,4.82-5.04,5.24.4,10.54.09,15.81.1q5.61,0,5.62,5.43c0,27.51,0,55.01,0,82.52q0,5.56,5.52,5.56c12.11,0,24.23.12,36.34-.08,3.29-.05,4.14,1,3.98,4.12Z"/>
</svg>