<svg xmlns="http://www.w3.org/2000/svg" width="168" height="37" viewBox="0 0 168 37" fill="none">
    <g clip-path="url(#clip0_901_1813)">
        <path
            d="M163.07 27.1719C162.422 27.1712 161.78 27.2977 161.182 27.5442C160.583 27.7907 160.039 28.1524 159.58 28.6085C159.122 29.0647 158.758 29.6063 158.51 30.2025C158.262 30.7988 158.135 31.4379 158.135 32.0833C158.135 33.3873 158.655 34.6379 159.58 35.5599C160.506 36.482 161.761 37 163.07 37C164.378 36.9986 165.632 36.48 166.556 35.5581C167.481 34.6361 168 33.3864 168 32.0833C168 30.7807 167.481 29.5315 166.556 28.6104C165.631 27.6893 164.377 27.1719 163.07 27.1719Z"
            fill="rgb(255 255 255)" />
        <path d="M78.2474 0.710724L68.6588 36.284H78.5562L88.1448 0.710724H78.2474Z"
            fill="rgb(255 255 255)" />
        <path
            d="M116.304 0.710724L110.948 20.4784L101.716 0.710724H92.4785L82.89 36.284H92.7341L98.2445 15.8056L107.886 36.284H116.559L126.148 0.710724H116.304Z"
            fill="rgb(255 255 255)" />
        <path
            d="M141.47 28.0523C137.339 28.0523 134.331 25.2572 134.331 20.7329C134.331 14.5327 139.075 8.99542 144.979 8.99542C148.498 8.99542 150.739 10.6714 152.172 13.5674L160.738 8.99542C158.608 3.50588 153.545 -0.0212097 146.251 -0.0212097C132.531 -0.0212097 123.96 10.9048 123.96 21.4225C123.96 30.927 130.95 36.9735 140.842 36.9735C147.63 36.9735 152.321 34.2314 155.792 30.3171L149.11 24.4245C146.826 26.7317 144.585 28.0523 141.47 28.0523Z"
            fill="rgb(255 255 255)" />
        <path
            d="M64.0162 0.710724L59.1075 18.919L54.1987 0.710724H45.3714L40.4627 18.919L35.5539 0.710724H25.6565L35.2451 36.284H35.7775H45.1425L49.7851 18.0545L54.4276 36.284H63.7873H64.3197L73.9136 0.710724H64.0162Z"
            fill="rgb(255 255 255)" />
        <path
            d="M10.9622 27.8826L23.5802 9.1121H23.5855L21.3228 0.710724H0V9.1121H12.618L0 27.8826V36.284H30.9114L28.6433 27.8826H10.9622Z"
            fill="rgb(255 255 255)" />
    </g>
</svg>