<svg width="395px" height="111px" viewBox="0 0 395 111" version="1.1"
    xmlns="http://www.w3.org/2000/svg" xmlns:xlink="http://www.w3.org/1999/xlink">
    <defs>
        <linearGradient x1="23.21392%" y1="93.6669249%" x2="65.8195956%" y2="22.6956643%"
            id="linearGradient-1">
            <stop stop-color="#FFF" offset="0%"></stop>
            <stop stop-color="#FFF" offset="12.13%"></stop>
            <stop stop-color="#FFF" offset="30.57%"></stop>
            <stop stop-color="#FFF" offset="53.02%"></stop>
            <stop stop-color="#FFF" offset="78.39%"></stop>
            <stop stop-color="#FFF" offset="100%"></stop>
        </linearGradient>
        <radialGradient cx="50.0140523%" cy="49.9838328%" fx="50.0140523%" fy="49.9838328%"
            r="51.6602895%"
            gradientTransform="translate(0.500141,0.499838),scale(1.000000,0.936937),translate(-0.500141,-0.499838)"
            id="radialGradient-2">
            <stop stop-color="#FFF" stop-opacity="0.8" offset="7.84%"></stop>
            <stop stop-color="#FFF" stop-opacity="0.7987" offset="7.99%"></stop>
            <stop stop-color="#FFF" stop-opacity="0.7065" offset="18.61%"></stop>
            <stop stop-color="#FFF" stop-opacity="0.5925" offset="31.74%"></stop>
            <stop stop-color="#FFF" stop-opacity="0.433" offset="50.12%"></stop>
            <stop stop-color="#FFF" stop-opacity="0" offset="100%"></stop>
        </radialGradient>
    </defs>
    <g id="Page-1" stroke="none" stroke-width="1" fill="none" fill-rule="evenodd">
        <g id="brainhive-logo" fill-rule="nonzero">
            <g id="Group">
                <path
                    d="M103.295691,56.7136388 C103.313299,56.6871835 103.322103,56.6695466 103.33971,56.6430912 C103.401338,56.5549068 103.454161,56.4667223 103.49818,56.3785378 C103.515788,56.343264 103.533395,56.3079902 103.551003,56.2727164 C103.595022,56.184532 103.639042,56.1051659 103.674257,56.0169815 C103.691865,55.9728892 103.709473,55.9199785 103.72708,55.8758863 C103.762296,55.7965203 103.788707,55.7171543 103.815119,55.6289698 C103.832727,55.5672407 103.850334,55.5055115 103.867942,55.4437824 C103.88555,55.3732348 103.911961,55.2938688 103.920765,55.2233212 C103.938373,55.1439552 103.947177,55.0645892 103.955981,54.9852231 C103.964785,54.923494 103.982392,54.8617649 103.982392,54.8000358 C104,54.6765775 104,54.5443008 104,54.4208425 C104,54.4032056 104,54.3855687 104,54.3679318 C104,54.3679318 104,54.3679318 104,54.3679318 C104,54.3679318 104,54.3679318 104,54.3679318 C104,54.2180182 103.991196,54.0681046 103.973588,53.9270095 C103.973588,53.9005541 103.964785,53.8829172 103.964785,53.8564619 C103.947177,53.7330036 103.929569,53.6095454 103.903158,53.4949056 C103.894354,53.4596318 103.88555,53.4331764 103.876746,53.3979026 C103.850334,53.2920813 103.823923,53.1862599 103.788707,53.0804385 C103.779903,53.0451648 103.762296,53.0010725 103.744688,52.9657987 C103.709473,52.8687958 103.674257,52.7717929 103.630238,52.6836084 C103.61263,52.6395162 103.586219,52.5954239 103.568611,52.5601502 C103.524592,52.4719657 103.480572,52.3925997 103.436553,52.3044152 C103.410141,52.2603229 103.38373,52.2162307 103.357318,52.1721385 C103.304495,52.0927724 103.251672,52.0134064 103.198849,51.9428588 C103.172437,51.8987666 103.137222,51.8634928 103.11081,51.8194006 C103.049183,51.7400346 102.987556,51.669487 102.917125,51.5989394 C102.890714,51.5636656 102.855498,51.5372103 102.829087,51.5019365 C102.749852,51.413752 102.661813,51.334386 102.564971,51.25502 C102.547363,51.2462015 102.538559,51.2285646 102.520951,51.2197462 C101.825447,50.6289102 101.350038,49.8264315 101.147549,48.9269499 L101.156353,48.8916761 L101.138745,48.8916761 C101.077118,48.6006673 101.041903,48.2920217 101.041903,47.983376 L101.041903,40.9727105 L101.006688,40.9727105 L101.006688,34.6322469 C101.006688,29.3588155 98.1718446,24.4381219 93.611445,21.8014062 L59.3908406,1.97753679 C54.830441,-0.659178931 49.1607551,-0.659178931 44.6003555,1.97753679 L10.3357318,21.8014062 C5.77533226,24.4381219 2.94048929,29.3588155 2.94048929,34.6322469 L2.94048929,47.5865459 L2.94048929,47.5865459 L2.94048929,48.0362867 C2.94048929,49.2885062 2.42106154,50.4260859 1.51426395,51.1756539 C0.55464319,51.9693142 0,53.1333492 0,54.3767503 C0,55.6201513 0.55464319,56.7841864 1.51426395,57.5778466 C2.42106154,58.3185962 2.94048929,59.4649943 2.94048929,60.7172138 L2.94048929,61.2904129 L2.94048929,61.2904129 L2.94048929,82.1372222 C2.94048929,82.7986057 3.47752476,83.3277126 4.12901041,83.3277126 C4.78049606,83.3277126 5.31753153,82.7897873 5.31753153,82.1372222 L5.31753153,61.2815945 L5.31753153,59.438539 C5.31753153,58.8300661 5.64327436,58.2656855 6.17150597,57.9570399 C6.68212986,57.6572127 7.32481165,57.6572127 7.83543554,57.9570399 L26.9045966,68.9800989 L26.9045966,82.9397009 L26.9045966,82.9397009 L26.9045966,90.9380325 C26.9045966,91.5729607 26.5700499,92.1461598 26.0418183,92.4371686 C25.9449759,92.4900792 25.8481334,92.5518084 25.751291,92.6135375 C25.7336832,92.622356 25.7160755,92.6399928 25.6984678,92.6488113 C25.6104292,92.7105404 25.5223906,92.781088 25.434352,92.8428171 C25.4255481,92.8516356 25.4079404,92.860454 25.3991365,92.8692725 C25.2054516,93.036823 25.0205706,93.2131919 24.8532972,93.4160162 C24.8532972,93.4160162 24.8532972,93.4160162 24.8444934,93.4248347 C24.7652586,93.5218376 24.6948277,93.6188405 24.6243969,93.7158434 C24.615593,93.7334803 24.6067891,93.7422988 24.5979853,93.7599356 C24.5275544,93.865757 24.4571235,93.9803968 24.3954965,94.0950366 C24.3514772,94.1832211 24.3074579,94.2714056 24.2722424,94.3595901 C24.2546347,94.3860454 24.2458309,94.4213192 24.2282231,94.4477745 C24.1930077,94.5271406 24.1665961,94.615325 24.1401845,94.6946911 C24.1225768,94.7387833 24.1049691,94.7828755 24.0961652,94.8269678 C24.0785575,94.8798784 24.0697537,94.9327891 24.0609498,94.9768814 C24.0169305,95.1444319 23.9817151,95.3208008 23.9553035,95.4971698 C23.9553035,95.5324435 23.9464996,95.5588989 23.9376958,95.5941727 C23.9288919,95.6911756 23.920088,95.7881785 23.920088,95.8851814 C23.920088,95.9204552 23.9112842,95.955729 23.9112842,95.9910028 C23.9112842,96.0086397 23.9112842,96.035095 23.9112842,96.0527319 C23.9112842,96.132098 23.920088,96.2202824 23.920088,96.2996485 C23.920088,96.3261038 23.920088,96.3525591 23.920088,96.3790145 C23.9288919,96.4936543 23.9464996,96.5994757 23.9641073,96.7141155 C23.9641073,96.7317524 23.9641073,96.7405708 23.9729112,96.7582077 C23.9905189,96.8728475 24.0169305,96.9874873 24.0433421,97.0933087 C24.0433421,97.1021272 24.0521459,97.1109456 24.0521459,97.1285825 C24.0785575,97.2432223 24.113773,97.3490437 24.1577923,97.454865 C24.1665961,97.4725019 24.1665961,97.4901388 24.1754,97.5077757 C24.2106154,97.6047786 24.2546347,97.7017816 24.298654,97.7987845 C24.3162617,97.8252398 24.3250656,97.8605136 24.3426733,97.886969 C24.3778888,97.966335 24.4219081,98.045701 24.4659274,98.1162486 C24.4923389,98.1691593 24.5275544,98.2132515 24.553966,98.2573437 C24.5891814,98.3102544 24.6243969,98.3719836 24.6596123,98.4248942 C24.7036316,98.4954418 24.7564548,98.5571709 24.8092779,98.6189001 C24.8356895,98.6541739 24.8621011,98.6894477 24.8885127,98.7247214 C24.9501397,98.8040875 25.0205706,98.874635 25.0821976,98.9451826 C25.0998053,98.9628195 25.1262169,98.9892749 25.1438246,99.0069118 C25.2142555,99.0774593 25.2934902,99.1480069 25.372725,99.209736 C25.3991365,99.2273729 25.4167443,99.2538283 25.4431558,99.2714652 C25.5135867,99.3331943 25.5928215,99.386105 25.6720562,99.4390157 C25.7072716,99.465471 25.7424871,99.4919264 25.7777025,99.5095632 C25.7953103,99.5272001 25.8217218,99.5360186 25.8393296,99.5536555 C26.0242106,99.6682953 26.2178955,99.7741167 26.4203843,99.8623011 C26.437992,99.8711196 26.4555998,99.879938 26.4732075,99.8887565 C26.5788538,99.9328487 26.6845001,99.9681225 26.7901464,100.003396 C26.7989503,100.003396 26.816558,100.012215 26.8253619,100.012215 C27.0806738,100.091581 27.3447896,100.144491 27.6089054,100.170947 C27.6177093,100.170947 27.6177093,100.170947 27.6265132,100.170947 C27.7585711,100.188584 27.8994328,100.197402 28.0314907,100.197402 C28.07551,100.197402 28.1195293,100.188584 28.1547448,100.188584 C28.269195,100.188584 28.3836451,100.179765 28.4892915,100.170947 C28.5333108,100.162128 28.5861339,100.15331 28.6301532,100.15331 C28.7446034,100.135673 28.8590536,100.118036 28.9646999,100.091581 C28.9823076,100.082762 28.9999153,100.082762 29.0263269,100.082762 C29.0615424,100.073944 29.0967578,100.065125 29.1231694,100.056307 C29.2024041,100.03867 29.272835,100.012215 29.3432659,99.9857594 C29.4048929,99.9593041 29.4753238,99.9416672 29.5369508,99.9152118 C29.589774,99.8975749 29.6425971,99.8711196 29.7042242,99.8446642 C29.7834589,99.8093905 29.8714975,99.7652982 29.9507322,99.7300244 C29.9771438,99.7123875 30.0123593,99.6947506 30.0387708,99.6771137 C30.1356133,99.6242031 30.2324558,99.5624739 30.3204944,99.5095632 C30.3292982,99.5007448 30.346906,99.4919264 30.3557098,99.4831079 C30.4613561,99.4125603 30.5581986,99.3420128 30.6462372,99.2626467 C30.6550411,99.2626467 30.6550411,99.2538283 30.6638449,99.2538283 C30.7606874,99.1744623 30.848726,99.0862778 30.9367646,98.9980933 C30.9455684,98.9892749 30.9543723,98.9804564 30.9631762,98.971638 C31.0424109,98.8922719 31.1216456,98.8040875 31.2008804,98.715903 C31.2184881,98.6982661 31.2360958,98.6718108 31.2537035,98.6541739 C31.3153306,98.5748078 31.3769576,98.4954418 31.4297808,98.4160758 C31.4561923,98.3719836 31.4826039,98.3278913 31.5090155,98.2926175 C31.5442309,98.2397068 31.5794464,98.1956146 31.605858,98.1427039 C31.6234657,98.1162486 31.6322695,98.0897932 31.6410734,98.0721563 C31.6498773,98.0545195 31.6586811,98.0368826 31.667485,98.0192457 C31.7203081,97.9222427 31.7643274,97.8252398 31.8083467,97.7282369 C31.8171506,97.7106 31.8259545,97.6929631 31.8347583,97.6753262 C31.8787776,97.5695049 31.9139931,97.4636835 31.9492085,97.3490437 C31.9580124,97.3137699 31.9668162,97.2784961 31.9844239,97.2432223 C32.0108355,97.1550378 32.0284432,97.0756718 32.0548548,96.9874873 C32.0636587,96.9522135 32.0724625,96.9257582 32.0812664,96.8904844 C32.0988741,96.7846631 32.1164818,96.6700232 32.1340896,96.5553834 C32.1428934,96.5112912 32.1428934,96.4760174 32.1428934,96.4319252 C32.1516973,96.3437407 32.1516973,96.2555562 32.1605011,96.1673717 C32.1605011,96.1409164 32.1605011,96.1144611 32.1605011,96.0880057 C32.1605011,96.0791873 32.1605011,96.0703688 32.1605011,96.0615504 C32.1605011,95.4178037 32.486244,94.8269678 33.0232794,94.5183221 L41.8271396,89.4300781 L41.8183357,89.4212596 L48.1747228,85.7439671 C48.6589351,85.4617768 49.2135783,85.3647739 49.7594176,85.4441399 C50.3580801,85.8056962 51.0447812,86.017339 51.7843054,86.0349759 C51.810717,86.0349759 51.8283247,86.0349759 51.8547363,86.0349759 C51.8635402,86.0349759 51.872344,86.0349759 51.8899517,86.0349759 C52.4974181,86.0349759 53.0608651,85.9026992 53.5802929,85.6646011 C53.5802929,85.6646011 53.5802929,85.6646011 53.5802929,85.6646011 C54.3110133,85.3383185 55.14738,85.3735923 55.8340811,85.7704225 L58.1847118,87.1284633 L70.0435114,93.9980337 C70.0611191,94.0068522 70.0875307,94.0156706 70.1051384,94.0333075 C70.7918395,94.456593 71.2056209,95.1797057 71.2056209,95.9998212 C71.2056209,96.8287553 70.7830356,97.5783233 70.0611191,97.9927903 L69.9290612,98.0633379 L51.2912893,108.768933 C50.7190383,109.095215 50.5253534,109.827147 50.8510962,110.400346 C51.0623889,110.77072 51.4585626,111 51.8811479,111 C52.0924405,111 52.2949293,110.947089 52.4710065,110.841268 L59.0210785,107.075791 C59.1443325,107.049336 59.2587827,107.005243 59.3732329,106.943514 L71.1263862,100.15331 C72.0772031,99.6947506 73.1600779,99.6065662 74.1725218,99.8975749 C74.6743418,100.109218 75.2201812,100.232676 75.7924321,100.232676 C77.8613392,100.232676 79.5692881,98.7070845 79.8686193,96.7141155 C80.1503428,95.5941727 80.7754169,94.6682357 81.6469991,94.0685813 L93.6466605,87.1284633 C98.20706,84.4917476 101.041903,79.571054 101.041903,74.2976226 L101.041903,65.373354 L101.077118,65.373354 L101.077118,60.7701245 C101.077118,59.5090866 101.614154,58.3274146 102.556167,57.5337544 C102.741048,57.3750223 102.908321,57.1986534 103.057987,57.0222845 C103.066791,57.013466 103.075595,57.0046476 103.084399,56.9870107 C103.163633,56.8988262 103.234064,56.8018233 103.295691,56.7136388 Z M6.74375688,51.1668355 C5.83695928,50.4260859 5.31753153,49.2796878 5.31753153,48.0274683 L5.31753153,47.5777275 L5.31753153,34.6322469 C5.31753153,30.2053864 7.69457377,26.0783531 11.5242529,23.8649228 L26.9134005,14.9671096 L26.9134005,34.535244 C26.9134005,34.5440624 26.9134005,34.5528809 26.9134005,34.5616993 L26.9134005,34.7645236 C26.9134005,35.7433713 26.4732075,36.6428529 25.7248794,37.1631413 C24.6243969,37.9391646 23.9729112,39.2002026 23.9729112,40.549425 C23.9729112,41.889829 24.6243969,43.1596854 25.7248794,43.9357088 C26.4644036,44.4559971 26.9134005,45.3554788 26.9134005,46.3343264 L26.9134005,46.6517905 C26.9134005,46.6606089 26.9134005,46.6694274 26.9134005,46.6782458 L26.9134005,66.2287434 L9.09438754,55.928797 C8.57495979,55.6289698 8.25802082,55.0469523 8.26682468,54.4120241 L8.26682468,54.3679318 C8.25802082,53.1245308 7.71218149,51.9516773 6.74375688,51.1668355 Z M4.13781427,52.912888 C4.52518412,52.912888 4.87733853,53.0628016 5.15906205,53.3361735 C5.52002032,53.6977298 5.66088208,54.1915629 5.5464319,54.7030328 C5.43198172,55.2321397 5.00059257,55.6642436 4.47236096,55.7788834 L4.47236096,55.7788834 C3.97054093,55.8935232 3.4687209,55.7524281 3.10776263,55.3908717 C2.74680437,55.0293154 2.60594261,54.5354823 2.72039279,54.0240124 C2.83484297,53.4949056 3.26623212,53.0628016 3.79446373,52.9481618 C3.90891391,52.9305249 4.02336409,52.912888 4.13781427,52.912888 Z M53.2369424,82.4458678 C53.2017269,82.5252339 53.1665115,82.5957814 53.1136883,82.666329 C53.1048844,82.6751475 53.0960806,82.6927844 53.0872767,82.7016028 C52.9904343,82.842698 52.8671802,82.9661562 52.7175146,83.0719776 C52.7087107,83.080796 52.6999069,83.080796 52.691103,83.0896145 C52.6206721,83.1337067 52.5502413,83.1689805 52.4798104,83.2042543 C52.4710065,83.2042543 52.4622027,83.2130728 52.4533988,83.2130728 C52.3829679,83.2395281 52.3037332,83.2659834 52.2244984,83.2836203 C52.1980869,83.2924388 52.1716753,83.2924388 52.1452637,83.3012572 C52.066029,83.3188941 51.9779903,83.3277126 51.8899517,83.3277126 C51.8899517,83.3277126 51.8899517,83.3277126 51.8899517,83.3277126 C51.7931093,83.3277126 51.7050707,83.3188941 51.6170321,83.3012572 C51.6082282,83.3012572 51.5994244,83.3012572 51.5906205,83.2924388 C51.5025819,83.2748019 51.4233472,83.2483465 51.3353086,83.2130728 C51.3265047,83.2130728 51.3177008,83.2042543 51.308897,83.2042543 C51.2384661,83.1689805 51.1680352,83.1337067 51.0976043,83.0896145 C51.0888005,83.080796 51.0799966,83.080796 51.0711928,83.0719776 C50.6926268,82.8074242 50.4373148,82.3753203 50.4373148,81.8726688 C50.4373148,81.7756659 50.4461187,81.6786629 50.4637264,81.58166 C50.4637264,81.58166 50.4637264,81.58166 50.4637264,81.58166 C50.4813341,81.4934755 50.5077457,81.4052911 50.5429611,81.3171066 C50.5429611,81.3082881 50.5429611,81.3082881 50.551765,81.2994697 C50.5869804,81.2201037 50.6309997,81.1407377 50.675019,81.0701901 C50.6838229,81.0613716 50.6838229,81.0525532 50.6926268,81.0525532 C50.7982731,80.9026396 50.9215271,80.7791813 51.0711928,80.6733599 C51.0799966,80.6733599 51.0799966,80.6645415 51.0888005,80.6645415 C51.1592314,80.6204493 51.2384661,80.576357 51.3177008,80.5410832 C51.3265047,80.5410832 51.3265047,80.5322648 51.3353086,80.5322648 C51.4057394,80.496991 51.4849742,80.4793541 51.5730128,80.4617172 C51.5994244,80.4528988 51.6258359,80.4528988 51.6434437,80.4440803 C51.7226784,80.4264434 51.810717,80.417625 51.8987556,80.417625 C51.9955981,80.417625 52.0924405,80.4264434 52.189283,80.4440803 C52.1980869,80.4440803 52.1980869,80.4440803 52.2068907,80.4440803 C52.2949293,80.4617172 52.3741641,80.4881726 52.4533988,80.5234463 C52.4798104,80.5322648 52.506222,80.5499017 52.5326335,80.5587201 C52.5854567,80.5851755 52.6470837,80.6116308 52.6999069,80.6469046 C52.7263185,80.6645415 52.7439262,80.6821784 52.7703378,80.6998153 C53.0432574,80.911458 53.2457462,81.2112852 53.324981,81.5552047 C53.324981,81.5552047 53.324981,81.5640231 53.324981,81.5640231 C53.3425887,81.661026 53.3513925,81.7492105 53.3513925,81.8550319 C53.3513925,81.9520348 53.3425887,82.0490377 53.324981,82.1372222 C53.324981,82.1460406 53.324981,82.1460406 53.3161771,82.1548591 C53.2985694,82.2342251 53.2721578,82.3135911 53.2457462,82.3929572 C53.2369424,82.4194125 53.2369424,82.4282309 53.2369424,82.4458678 Z M29.2904427,14.9847465 L49.6185558,26.7485551 L32.7503598,36.5370315 C32.0284432,36.9514985 31.1656649,36.9514985 30.4437484,36.5370315 C29.7306357,36.1225645 29.2992466,35.3906334 29.2904427,34.5705178 L29.2904427,27.1453852 L29.2904427,27.1453852 L29.2904427,14.9847465 Z M98.5592144,53.8035512 C98.5944299,53.7241852 98.6384492,53.6448192 98.6824685,53.5742716 C98.6912723,53.5654531 98.6912723,53.5566347 98.7000762,53.5478162 C98.7969186,53.4067211 98.9201727,53.2832628 99.0698383,53.1774415 C99.087446,53.168623 99.0962499,53.1598046 99.1138576,53.1509861 C99.1754846,53.1157123 99.2371117,53.0804385 99.2987387,53.0451648 C99.3163464,53.0363463 99.3339541,53.0275279 99.342758,53.0187094 C99.4131889,52.9922541 99.4924236,52.9657987 99.5628545,52.9481618 C99.5980699,52.9393434 99.6332854,52.9393434 99.6685008,52.9305249 C99.7125201,52.9217065 99.7565394,52.9217065 99.8005587,52.912888 C99.8269703,52.912888 99.8621857,52.9040696 99.8885973,52.9040696 C100.275967,52.9040696 100.628122,53.0539832 100.909845,53.3273551 C100.927453,53.344992 100.945061,53.3714473 100.971472,53.3890842 C100.997884,53.424358 101.033099,53.4596318 101.059511,53.4949056 C101.077118,53.5213609 101.094726,53.5478162 101.112334,53.5742716 C101.156353,53.6360007 101.191569,53.7065483 101.21798,53.7770959 C101.21798,53.7859143 101.21798,53.7859143 101.226784,53.7947328 C101.261999,53.8740988 101.279607,53.9446464 101.297215,54.0328308 C101.297215,54.0504677 101.306019,54.0681046 101.306019,54.0857415 C101.323627,54.173926 101.33243,54.253292 101.33243,54.3414765 C101.33243,54.3502949 101.33243,54.3679318 101.33243,54.3767503 C101.33243,54.4649348 101.323627,54.5531192 101.306019,54.6413037 C101.306019,54.6413037 101.306019,54.6501221 101.306019,54.6501221 C101.173961,55.3115057 100.584102,55.8053387 99.8885973,55.8053387 C99.1930924,55.8053387 98.6120376,55.3115057 98.4711758,54.6501221 C98.4711758,54.6413037 98.4711758,54.6413037 98.4711758,54.6324853 C98.4535681,54.5443008 98.4447642,54.4561163 98.4447642,54.3591134 C98.4447642,54.3414765 98.4447642,54.332658 98.4447642,54.3150212 C98.4447642,54.2356551 98.4535681,54.1562891 98.4711758,54.0769231 C98.4711758,54.0681046 98.4711758,54.0504677 98.4799797,54.0416493 C98.4975874,53.9711017 98.523999,53.8829172 98.5592144,53.8035512 C98.5592144,53.8035512 98.5592144,53.8035512 98.5592144,53.8035512 Z M61.0195547,58.2833224 C60.9931431,58.2656855 60.9579277,58.2480486 60.9315161,58.2392302 C59.5933294,57.427933 58.7921781,56.0257999 58.7921781,54.4472979 C58.7921781,52.8511589 59.619741,51.413752 61.001947,50.6112733 L71.2584441,44.6676399 C71.6105985,44.4648156 72.0155761,44.3501758 72.4117498,44.3501758 C72.8079235,44.3501758 73.2040972,44.4559971 73.5650554,44.6588214 C74.286972,45.0732884 74.7183611,45.8228565 74.7183611,46.6606089 L74.7183611,66.202288 L61.0195547,58.2833224 Z M51.8987556,50.6818209 C53.9324473,50.6818209 55.5787692,52.3308705 55.5787692,54.3679318 C55.5787692,56.4049931 53.9324473,58.0540428 51.8987556,58.0540428 C49.8650639,58.0540428 48.2187421,56.4049931 48.2187421,54.3679318 C48.2187421,52.3308705 49.8650639,50.6818209 51.8987556,50.6818209 Z M71.2232286,40.5935172 C71.2232286,41.4224513 70.7918395,42.1720193 70.069923,42.5864863 L59.8222297,48.5213013 C58.4400237,49.32378 56.784898,49.32378 55.4026919,48.5213013 C54.0204859,47.7188226 53.1929231,46.2902342 53.1929231,44.6852768 L53.1929231,28.8385271 L70.0611191,38.6005482 C70.0787268,38.6093666 70.0963345,38.6181851 70.1227461,38.635822 C70.8094472,39.0591074 71.2232286,39.7822201 71.2232286,40.5935172 Z M33.930077,38.6093666 L50.8070769,28.8297086 L50.8070769,44.6940952 L50.8070769,44.7029137 C50.8070769,46.3078711 49.9795141,47.7364595 48.5973081,48.5389382 C47.2415136,49.32378 45.6304072,49.3325985 44.2658089,48.5830304 C44.2393973,48.5653936 44.2217896,48.5565751 44.195378,48.5389382 L33.9476848,42.6041232 C33.930077,42.5953048 33.9036655,42.5864863 33.8860577,42.5688494 C33.1993566,42.145564 32.785443,41.4224513 32.785443,40.6023357 C32.7767714,39.7734017 33.2081605,39.0326521 33.930077,38.6093666 Z M54.3374249,78.0542811 C53.6155083,77.6398141 53.1841192,76.8902461 53.1841192,76.0524936 L53.1841192,64.1916821 L53.1841192,64.1828636 C53.1841192,62.5779062 54.011682,61.1493178 55.3938881,60.3468391 C56.0717853,59.9500089 56.8377212,59.7471847 57.603657,59.7471847 C58.3343774,59.7471847 59.0650978,59.9411905 59.7253873,60.3027468 C59.7517989,60.3203837 59.7694066,60.3292022 59.7958182,60.3468391 L73.5034284,68.2834416 L56.6352324,78.0542811 C55.9221197,78.4775666 55.0593414,78.4775666 54.3374249,78.0542811 Z M93.9635994,56.4314485 L77.0865995,66.2111065 L77.0865995,46.6694274 L77.0865995,46.6694274 C77.0865995,45.8316749 77.5179887,45.0909253 78.2399052,44.6676399 C78.5920596,44.4648156 78.9882333,44.3501758 79.3932109,44.3501758 C79.7277576,44.3501758 80.0623042,44.4295418 80.3704393,44.5794554 L87.5455854,48.7241256 L87.5543892,48.7153072 L93.9812071,52.4366919 C94.7031237,52.8511589 95.1345128,53.6007269 95.1345128,54.429661 C95.1169051,55.2762319 94.685516,56.0169815 93.9635994,56.4314485 Z M47.3647676,78.0630996 L30.4877677,68.29226 L44.1689664,60.364476 C45.5511724,59.5619973 47.2062981,59.5619973 48.5885042,60.364476 C49.9707102,61.1669547 50.7982731,62.5955431 50.7982731,64.2005005 L50.7982731,76.0701305 L50.7982731,76.0701305 C50.7982731,76.907883 50.3668839,77.6486325 49.6449674,78.071918 C48.9406586,78.4775666 48.1042919,78.486385 47.3999831,78.0983734 C47.3911792,78.0807365 47.3823753,78.071918 47.3647676,78.0630996 Z M77.0865995,89.8974558 L77.0865995,68.9800989 L95.1433167,58.512602 C95.8652332,58.098135 96.7280115,58.098135 97.449928,58.512602 C98.1718446,58.9270691 98.6032337,59.6766371 98.6032337,60.5143896 L98.6032337,74.3946255 C98.6032337,78.7333016 96.2702108,82.7809688 92.5197664,84.9591253 L80.5465165,91.8992433 C79.8246,92.3137103 78.9618217,92.3137103 78.2399052,91.8992433 C77.5179887,91.4847763 77.0865995,90.7352082 77.0865995,89.8974558 Z M28.1107255,39.0943812 C28.4980953,39.0943812 28.8502497,39.2442948 29.1319732,39.5176667 C29.4929315,39.879223 29.6337933,40.3730561 29.5193431,40.884526 C29.4048929,41.4136328 28.9735038,41.8457368 28.4452722,41.9603766 C27.9434521,42.0750164 27.4416321,41.9339212 27.0806738,41.5723649 C26.7197156,41.2108086 26.5788538,40.7169755 26.693304,40.2055056 C26.8077542,39.6763987 27.2391433,39.2442948 27.7673749,39.129655 C27.8818251,39.1031997 27.9962753,39.0943812 28.1107255,39.0943812 Z M29.2904427,51.5460287 L29.2904427,51.5460287 L29.2904427,46.6341536 C29.2992466,45.814038 29.7306357,45.0732884 30.4437484,44.6676399 C30.7959028,44.4648156 31.1920765,44.3501758 31.5970541,44.3501758 C31.9756201,44.3501758 32.3541861,44.4471787 32.6887328,44.6323661 C32.7063405,44.6411845 32.7239482,44.650003 32.7415559,44.6588214 L42.9892491,50.5936364 C43.0156607,50.6112733 43.0508762,50.6289102 43.0772877,50.6377287 C44.4154745,51.4490258 45.2166258,52.8511589 45.2166258,54.429661 C45.2166258,56.0257999 44.3890629,57.4632068 43.0068569,58.2656855 L29.2992466,66.2111065 L29.2992466,51.5460287 L29.2904427,51.5460287 Z M74.7007534,24.006018 L74.7007534,34.535244 C74.7007534,35.3729965 74.2693643,36.1137461 73.5474477,36.5370315 C72.8431389,36.9426801 72.0067722,36.9514985 71.3024634,36.5634869 C71.2848557,36.5546684 71.2760518,36.54585 71.2584441,36.5370315 L54.3814442,26.766192 L74.7007534,14.9935649 L74.7007534,24.006018 Z M71.2584441,91.8992433 L57.7445188,84.0772806 C57.0754254,83.6539951 56.6704478,82.9308824 56.6704478,82.1284037 C56.6704478,81.2906513 57.101837,80.5499017 57.8237535,80.1354347 L74.7007534,70.3557767 L74.7007534,89.9062742 L74.7007534,89.9062742 C74.7007534,90.7440267 74.2693643,91.4847763 73.5474477,91.9080617 C72.8431389,92.3137103 72.0155761,92.3225287 71.3024634,91.9345171 C71.2936595,91.9168802 71.2760518,91.9080617 71.2584441,91.8992433 Z M98.6736646,49.1297742 L98.6560569,49.1826849 C98.4711758,49.6941548 98.1190214,50.1086218 97.6348091,50.3819937 C96.9040887,50.7964607 96.0325066,50.7964607 95.3017862,50.3819937 L80.8194362,42.0661979 C80.2824007,41.6429125 79.9478541,41.0168027 79.9214425,40.3730561 C79.9214425,40.3466007 79.9126386,40.3289638 79.9126386,40.3025085 C79.9038348,40.1702318 79.8950309,40.0467735 79.8774232,39.9144968 C79.8686193,39.879223 79.8686193,39.8439492 79.8598155,39.8086754 C79.8334039,39.6587618 79.7981884,39.5088482 79.762973,39.3677531 C79.762973,39.3589346 79.7541691,39.3501162 79.7541691,39.3324793 C79.7101498,39.1737472 79.6485228,39.0150152 79.5868958,38.8651016 C79.5780919,38.8386462 79.5604842,38.8033725 79.5428765,38.7769171 C79.4900533,38.6710958 79.4372302,38.5564559 79.3756031,38.459453 C79.3579954,38.4329977 79.3491916,38.4065423 79.3403877,38.380087 C79.32278,38.3536317 79.3051723,38.3183579 79.2699568,38.2830841 C78.9354101,37.7627957 78.4864133,37.3218733 77.9669855,36.9955908 C77.3947346,36.290115 77.0777956,35.4259072 77.0777956,34.5087887 L77.0777956,24.006018 L77.0777956,24.006018 L77.0777956,14.9847465 L87.2374503,20.8666508 C87.3078811,20.910743 87.3871159,20.9371984 87.4575468,20.9636537 L92.4581393,23.8561044 C96.2878185,26.0695346 98.6648607,30.196568 98.6648607,34.6234285 L98.6648607,49.1297742 L98.6736646,49.1297742 Z M52.0132058,25.3816958 L30.4613561,12.9124114 L45.7976805,4.04987189 C49.6273597,1.83644164 54.3814442,1.83644164 58.2111233,4.04987189 L73.5386439,12.9124114 L52.0132058,25.3816958 Z M46.1586388,80.1266162 C46.1762465,80.1354347 46.1938542,80.1442531 46.2202658,80.16189 C46.9069669,80.5851755 47.3207483,81.3171066 47.3207483,82.1284037 C47.3207483,82.9661562 46.8893592,83.7069058 46.1674426,84.1213728 L40.224837,87.5605672 L39.0275121,88.2484061 L39.0275121,88.2484061 L31.9756201,92.3489841 C31.4209769,92.6752666 30.7518835,92.6752666 30.1884365,92.3489841 C29.6337933,92.03152 29.2992466,91.4583209 29.2992466,90.8145743 L29.2992466,82.9397009 L29.2992466,82.9397009 L29.2992466,70.3557767 L46.1586388,80.1266162 Z"
                    id="Shape" fill="url(#linearGradient-1)"></path>
                <path
                    d="M103.295691,56.7136388 C103.313299,56.6871835 103.322103,56.6695466 103.33971,56.6430912 C103.401338,56.5549068 103.454161,56.4667223 103.49818,56.3785378 C103.515788,56.343264 103.533395,56.3079902 103.551003,56.2727164 C103.595022,56.184532 103.639042,56.1051659 103.674257,56.0169815 C103.691865,55.9728892 103.709473,55.9199785 103.72708,55.8758863 C103.762296,55.7965203 103.788707,55.7171543 103.815119,55.6289698 C103.832727,55.5672407 103.850334,55.5055115 103.867942,55.4437824 C103.88555,55.3732348 103.911961,55.2938688 103.920765,55.2233212 C103.938373,55.1439552 103.947177,55.0645892 103.955981,54.9852231 C103.964785,54.923494 103.982392,54.8617649 103.982392,54.8000358 C104,54.6765775 104,54.5443008 104,54.4208425 C104,54.4032056 104,54.3855687 104,54.3679318 C104,54.3679318 104,54.3679318 104,54.3679318 C104,54.3679318 104,54.3679318 104,54.3679318 C104,54.2180182 103.991196,54.0681046 103.973588,53.9270095 C103.973588,53.9005541 103.964785,53.8829172 103.964785,53.8564619 C103.947177,53.7330036 103.929569,53.6095454 103.903158,53.4949056 C103.894354,53.4596318 103.88555,53.4331764 103.876746,53.3979026 C103.850334,53.2920813 103.823923,53.1862599 103.788707,53.0804385 C103.779903,53.0451648 103.762296,53.0010725 103.744688,52.9657987 C103.709473,52.8687958 103.674257,52.7717929 103.630238,52.6836084 C103.61263,52.6395162 103.586219,52.5954239 103.568611,52.5601502 C103.524592,52.4719657 103.480572,52.3925997 103.436553,52.3044152 C103.410141,52.2603229 103.38373,52.2162307 103.357318,52.1721385 C103.304495,52.0927724 103.251672,52.0134064 103.198849,51.9428588 C103.172437,51.8987666 103.137222,51.8634928 103.11081,51.8194006 C103.049183,51.7400346 102.987556,51.669487 102.917125,51.5989394 C102.890714,51.5636656 102.855498,51.5372103 102.829087,51.5019365 C102.749852,51.413752 102.661813,51.334386 102.564971,51.25502 C102.547363,51.2462015 102.538559,51.2285646 102.520951,51.2197462 C101.825447,50.6289102 101.350038,49.8264315 101.147549,48.9269499 L101.156353,48.8916761 L101.138745,48.8916761 C101.077118,48.6006673 101.041903,48.2920217 101.041903,47.983376 L101.041903,40.9727105 L101.006688,40.9727105 L101.006688,34.6322469 C101.006688,29.3588155 98.1718446,24.4381219 93.611445,21.8014062 L59.3908406,1.97753679 C54.830441,-0.659178931 49.1607551,-0.659178931 44.6003555,1.97753679 L10.3357318,21.8014062 C5.77533226,24.4381219 2.94048929,29.3588155 2.94048929,34.6322469 L2.94048929,47.5865459 L2.94048929,47.5865459 L2.94048929,48.0362867 C2.94048929,49.2885062 2.42106154,50.4260859 1.51426395,51.1756539 C0.55464319,51.9693142 0,53.1333492 0,54.3767503 C0,55.6201513 0.55464319,56.7841864 1.51426395,57.5778466 C2.42106154,58.3185962 2.94048929,59.4649943 2.94048929,60.7172138 L2.94048929,61.2904129 L2.94048929,61.2904129 L2.94048929,82.1372222 C2.94048929,82.7986057 3.47752476,83.3277126 4.12901041,83.3277126 C4.78049606,83.3277126 5.31753153,82.7897873 5.31753153,82.1372222 L5.31753153,61.2815945 L5.31753153,59.438539 C5.31753153,58.8300661 5.64327436,58.2656855 6.17150597,57.9570399 C6.68212986,57.6572127 7.32481165,57.6572127 7.83543554,57.9570399 L26.9045966,68.9800989 L26.9045966,82.9397009 L26.9045966,82.9397009 L26.9045966,90.9380325 C26.9045966,91.5729607 26.5700499,92.1461598 26.0418183,92.4371686 C25.9449759,92.4900792 25.8481334,92.5518084 25.751291,92.6135375 C25.7336832,92.622356 25.7160755,92.6399928 25.6984678,92.6488113 C25.6104292,92.7105404 25.5223906,92.781088 25.434352,92.8428171 C25.4255481,92.8516356 25.4079404,92.860454 25.3991365,92.8692725 C25.2054516,93.036823 25.0205706,93.2131919 24.8532972,93.4160162 C24.8532972,93.4160162 24.8532972,93.4160162 24.8444934,93.4248347 C24.7652586,93.5218376 24.6948277,93.6188405 24.6243969,93.7158434 C24.615593,93.7334803 24.6067891,93.7422988 24.5979853,93.7599356 C24.5275544,93.865757 24.4571235,93.9803968 24.3954965,94.0950366 C24.3514772,94.1832211 24.3074579,94.2714056 24.2722424,94.3595901 C24.2546347,94.3860454 24.2458309,94.4213192 24.2282231,94.4477745 C24.1930077,94.5271406 24.1665961,94.615325 24.1401845,94.6946911 C24.1225768,94.7387833 24.1049691,94.7828755 24.0961652,94.8269678 C24.0785575,94.8798784 24.0697537,94.9327891 24.0609498,94.9768814 C24.0169305,95.1444319 23.9817151,95.3208008 23.9553035,95.4971698 C23.9553035,95.5324435 23.9464996,95.5588989 23.9376958,95.5941727 C23.9288919,95.6911756 23.920088,95.7881785 23.920088,95.8851814 C23.920088,95.9204552 23.9112842,95.955729 23.9112842,95.9910028 C23.9112842,96.0086397 23.9112842,96.035095 23.9112842,96.0527319 C23.9112842,96.132098 23.920088,96.2202824 23.920088,96.2996485 C23.920088,96.3261038 23.920088,96.3525591 23.920088,96.3790145 C23.9288919,96.4936543 23.9464996,96.5994757 23.9641073,96.7141155 C23.9641073,96.7317524 23.9641073,96.7405708 23.9729112,96.7582077 C23.9905189,96.8728475 24.0169305,96.9874873 24.0433421,97.0933087 C24.0433421,97.1021272 24.0521459,97.1109456 24.0521459,97.1285825 C24.0785575,97.2432223 24.113773,97.3490437 24.1577923,97.454865 C24.1665961,97.4725019 24.1665961,97.4901388 24.1754,97.5077757 C24.2106154,97.6047786 24.2546347,97.7017816 24.298654,97.7987845 C24.3162617,97.8252398 24.3250656,97.8605136 24.3426733,97.886969 C24.3778888,97.966335 24.4219081,98.045701 24.4659274,98.1162486 C24.4923389,98.1691593 24.5275544,98.2132515 24.553966,98.2573437 C24.5891814,98.3102544 24.6243969,98.3719836 24.6596123,98.4248942 C24.7036316,98.4954418 24.7564548,98.5571709 24.8092779,98.6189001 C24.8356895,98.6541739 24.8621011,98.6894477 24.8885127,98.7247214 C24.9501397,98.8040875 25.0205706,98.874635 25.0821976,98.9451826 C25.0998053,98.9628195 25.1262169,98.9892749 25.1438246,99.0069118 C25.2142555,99.0774593 25.2934902,99.1480069 25.372725,99.209736 C25.3991365,99.2273729 25.4167443,99.2538283 25.4431558,99.2714652 C25.5135867,99.3331943 25.5928215,99.386105 25.6720562,99.4390157 C25.7072716,99.465471 25.7424871,99.4919264 25.7777025,99.5095632 C25.7953103,99.5272001 25.8217218,99.5360186 25.8393296,99.5536555 C26.0242106,99.6682953 26.2178955,99.7741167 26.4203843,99.8623011 C26.437992,99.8711196 26.4555998,99.879938 26.4732075,99.8887565 C26.5788538,99.9328487 26.6845001,99.9681225 26.7901464,100.003396 C26.7989503,100.003396 26.816558,100.012215 26.8253619,100.012215 C27.0806738,100.091581 27.3447896,100.144491 27.6089054,100.170947 C27.6177093,100.170947 27.6177093,100.170947 27.6265132,100.170947 C27.7585711,100.188584 27.8994328,100.197402 28.0314907,100.197402 C28.07551,100.197402 28.1195293,100.188584 28.1547448,100.188584 C28.269195,100.188584 28.3836451,100.179765 28.4892915,100.170947 C28.5333108,100.162128 28.5861339,100.15331 28.6301532,100.15331 C28.7446034,100.135673 28.8590536,100.118036 28.9646999,100.091581 C28.9823076,100.082762 28.9999153,100.082762 29.0263269,100.082762 C29.0615424,100.073944 29.0967578,100.065125 29.1231694,100.056307 C29.2024041,100.03867 29.272835,100.012215 29.3432659,99.9857594 C29.4048929,99.9593041 29.4753238,99.9416672 29.5369508,99.9152118 C29.589774,99.8975749 29.6425971,99.8711196 29.7042242,99.8446642 C29.7834589,99.8093905 29.8714975,99.7652982 29.9507322,99.7300244 C29.9771438,99.7123875 30.0123593,99.6947506 30.0387708,99.6771137 C30.1356133,99.6242031 30.2324558,99.5624739 30.3204944,99.5095632 C30.3292982,99.5007448 30.346906,99.4919264 30.3557098,99.4831079 C30.4613561,99.4125603 30.5581986,99.3420128 30.6462372,99.2626467 C30.6550411,99.2626467 30.6550411,99.2538283 30.6638449,99.2538283 C30.7606874,99.1744623 30.848726,99.0862778 30.9367646,98.9980933 C30.9455684,98.9892749 30.9543723,98.9804564 30.9631762,98.971638 C31.0424109,98.8922719 31.1216456,98.8040875 31.2008804,98.715903 C31.2184881,98.6982661 31.2360958,98.6718108 31.2537035,98.6541739 C31.3153306,98.5748078 31.3769576,98.4954418 31.4297808,98.4160758 C31.4561923,98.3719836 31.4826039,98.3278913 31.5090155,98.2926175 C31.5442309,98.2397068 31.5794464,98.1956146 31.605858,98.1427039 C31.6234657,98.1162486 31.6322695,98.0897932 31.6410734,98.0721563 C31.6498773,98.0545195 31.6586811,98.0368826 31.667485,98.0192457 C31.7203081,97.9222427 31.7643274,97.8252398 31.8083467,97.7282369 C31.8171506,97.7106 31.8259545,97.6929631 31.8347583,97.6753262 C31.8787776,97.5695049 31.9139931,97.4636835 31.9492085,97.3490437 C31.9580124,97.3137699 31.9668162,97.2784961 31.9844239,97.2432223 C32.0108355,97.1550378 32.0284432,97.0756718 32.0548548,96.9874873 C32.0636587,96.9522135 32.0724625,96.9257582 32.0812664,96.8904844 C32.0988741,96.7846631 32.1164818,96.6700232 32.1340896,96.5553834 C32.1428934,96.5112912 32.1428934,96.4760174 32.1428934,96.4319252 C32.1516973,96.3437407 32.1516973,96.2555562 32.1605011,96.1673717 C32.1605011,96.1409164 32.1605011,96.1144611 32.1605011,96.0880057 C32.1605011,96.0791873 32.1605011,96.0703688 32.1605011,96.0615504 C32.1605011,95.4178037 32.486244,94.8269678 33.0232794,94.5183221 L41.8271396,89.4300781 L41.8183357,89.4212596 L48.1747228,85.7439671 C48.6589351,85.4617768 49.2135783,85.3647739 49.7594176,85.4441399 C50.3580801,85.8056962 51.0447812,86.017339 51.7843054,86.0349759 C51.810717,86.0349759 51.8283247,86.0349759 51.8547363,86.0349759 C51.8635402,86.0349759 51.872344,86.0349759 51.8899517,86.0349759 C52.4974181,86.0349759 53.0608651,85.9026992 53.5802929,85.6646011 C53.5802929,85.6646011 53.5802929,85.6646011 53.5802929,85.6646011 C54.3110133,85.3383185 55.14738,85.3735923 55.8340811,85.7704225 L58.1847118,87.1284633 L70.0435114,93.9980337 C70.0611191,94.0068522 70.0875307,94.0156706 70.1051384,94.0333075 C70.7918395,94.456593 71.2056209,95.1797057 71.2056209,95.9998212 C71.2056209,96.8287553 70.7830356,97.5783233 70.0611191,97.9927903 L69.9290612,98.0633379 L51.2912893,108.768933 C50.7190383,109.095215 50.5253534,109.827147 50.8510962,110.400346 C51.0623889,110.77072 51.4585626,111 51.8811479,111 C52.0924405,111 52.2949293,110.947089 52.4710065,110.841268 L59.0210785,107.075791 C59.1443325,107.049336 59.2587827,107.005243 59.3732329,106.943514 L71.1263862,100.15331 C72.0772031,99.6947506 73.1600779,99.6065662 74.1725218,99.8975749 C74.6743418,100.109218 75.2201812,100.232676 75.7924321,100.232676 C77.8613392,100.232676 79.5692881,98.7070845 79.8686193,96.7141155 C80.1503428,95.5941727 80.7754169,94.6682357 81.6469991,94.0685813 L93.6466605,87.1284633 C98.20706,84.4917476 101.041903,79.571054 101.041903,74.2976226 L101.041903,65.373354 L101.077118,65.373354 L101.077118,60.7701245 C101.077118,59.5090866 101.614154,58.3274146 102.556167,57.5337544 C102.741048,57.3750223 102.908321,57.1986534 103.057987,57.0222845 C103.066791,57.013466 103.075595,57.0046476 103.084399,56.9870107 C103.163633,56.8988262 103.234064,56.8018233 103.295691,56.7136388 Z M6.74375688,51.1668355 C5.83695928,50.4260859 5.31753153,49.2796878 5.31753153,48.0274683 L5.31753153,47.5777275 L5.31753153,34.6322469 C5.31753153,30.2053864 7.69457377,26.0783531 11.5242529,23.8649228 L26.9134005,14.9671096 L26.9134005,34.535244 C26.9134005,34.5440624 26.9134005,34.5528809 26.9134005,34.5616993 L26.9134005,34.7645236 C26.9134005,35.7433713 26.4732075,36.6428529 25.7248794,37.1631413 C24.6243969,37.9391646 23.9729112,39.2002026 23.9729112,40.549425 C23.9729112,41.889829 24.6243969,43.1596854 25.7248794,43.9357088 C26.4644036,44.4559971 26.9134005,45.3554788 26.9134005,46.3343264 L26.9134005,46.6517905 C26.9134005,46.6606089 26.9134005,46.6694274 26.9134005,46.6782458 L26.9134005,66.2287434 L9.09438754,55.928797 C8.57495979,55.6289698 8.25802082,55.0469523 8.26682468,54.4120241 L8.26682468,54.3679318 C8.25802082,53.1245308 7.71218149,51.9516773 6.74375688,51.1668355 Z M4.13781427,52.912888 C4.52518412,52.912888 4.87733853,53.0628016 5.15906205,53.3361735 C5.52002032,53.6977298 5.66088208,54.1915629 5.5464319,54.7030328 C5.43198172,55.2321397 5.00059257,55.6642436 4.47236096,55.7788834 L4.47236096,55.7788834 C3.97054093,55.8935232 3.4687209,55.7524281 3.10776263,55.3908717 C2.74680437,55.0293154 2.60594261,54.5354823 2.72039279,54.0240124 C2.83484297,53.4949056 3.26623212,53.0628016 3.79446373,52.9481618 C3.90891391,52.9305249 4.02336409,52.912888 4.13781427,52.912888 Z M53.2369424,82.4458678 C53.2017269,82.5252339 53.1665115,82.5957814 53.1136883,82.666329 C53.1048844,82.6751475 53.0960806,82.6927844 53.0872767,82.7016028 C52.9904343,82.842698 52.8671802,82.9661562 52.7175146,83.0719776 C52.7087107,83.080796 52.6999069,83.080796 52.691103,83.0896145 C52.6206721,83.1337067 52.5502413,83.1689805 52.4798104,83.2042543 C52.4710065,83.2042543 52.4622027,83.2130728 52.4533988,83.2130728 C52.3829679,83.2395281 52.3037332,83.2659834 52.2244984,83.2836203 C52.1980869,83.2924388 52.1716753,83.2924388 52.1452637,83.3012572 C52.066029,83.3188941 51.9779903,83.3277126 51.8899517,83.3277126 C51.8899517,83.3277126 51.8899517,83.3277126 51.8899517,83.3277126 C51.7931093,83.3277126 51.7050707,83.3188941 51.6170321,83.3012572 C51.6082282,83.3012572 51.5994244,83.3012572 51.5906205,83.2924388 C51.5025819,83.2748019 51.4233472,83.2483465 51.3353086,83.2130728 C51.3265047,83.2130728 51.3177008,83.2042543 51.308897,83.2042543 C51.2384661,83.1689805 51.1680352,83.1337067 51.0976043,83.0896145 C51.0888005,83.080796 51.0799966,83.080796 51.0711928,83.0719776 C50.6926268,82.8074242 50.4373148,82.3753203 50.4373148,81.8726688 C50.4373148,81.7756659 50.4461187,81.6786629 50.4637264,81.58166 C50.4637264,81.58166 50.4637264,81.58166 50.4637264,81.58166 C50.4813341,81.4934755 50.5077457,81.4052911 50.5429611,81.3171066 C50.5429611,81.3082881 50.5429611,81.3082881 50.551765,81.2994697 C50.5869804,81.2201037 50.6309997,81.1407377 50.675019,81.0701901 C50.6838229,81.0613716 50.6838229,81.0525532 50.6926268,81.0525532 C50.7982731,80.9026396 50.9215271,80.7791813 51.0711928,80.6733599 C51.0799966,80.6733599 51.0799966,80.6645415 51.0888005,80.6645415 C51.1592314,80.6204493 51.2384661,80.576357 51.3177008,80.5410832 C51.3265047,80.5410832 51.3265047,80.5322648 51.3353086,80.5322648 C51.4057394,80.496991 51.4849742,80.4793541 51.5730128,80.4617172 C51.5994244,80.4528988 51.6258359,80.4528988 51.6434437,80.4440803 C51.7226784,80.4264434 51.810717,80.417625 51.8987556,80.417625 C51.9955981,80.417625 52.0924405,80.4264434 52.189283,80.4440803 C52.1980869,80.4440803 52.1980869,80.4440803 52.2068907,80.4440803 C52.2949293,80.4617172 52.3741641,80.4881726 52.4533988,80.5234463 C52.4798104,80.5322648 52.506222,80.5499017 52.5326335,80.5587201 C52.5854567,80.5851755 52.6470837,80.6116308 52.6999069,80.6469046 C52.7263185,80.6645415 52.7439262,80.6821784 52.7703378,80.6998153 C53.0432574,80.911458 53.2457462,81.2112852 53.324981,81.5552047 C53.324981,81.5552047 53.324981,81.5640231 53.324981,81.5640231 C53.3425887,81.661026 53.3513925,81.7492105 53.3513925,81.8550319 C53.3513925,81.9520348 53.3425887,82.0490377 53.324981,82.1372222 C53.324981,82.1460406 53.324981,82.1460406 53.3161771,82.1548591 C53.2985694,82.2342251 53.2721578,82.3135911 53.2457462,82.3929572 C53.2369424,82.4194125 53.2369424,82.4282309 53.2369424,82.4458678 Z M29.2904427,14.9847465 L49.6185558,26.7485551 L32.7503598,36.5370315 C32.0284432,36.9514985 31.1656649,36.9514985 30.4437484,36.5370315 C29.7306357,36.1225645 29.2992466,35.3906334 29.2904427,34.5705178 L29.2904427,27.1453852 L29.2904427,27.1453852 L29.2904427,14.9847465 Z M98.5592144,53.8035512 C98.5944299,53.7241852 98.6384492,53.6448192 98.6824685,53.5742716 C98.6912723,53.5654531 98.6912723,53.5566347 98.7000762,53.5478162 C98.7969186,53.4067211 98.9201727,53.2832628 99.0698383,53.1774415 C99.087446,53.168623 99.0962499,53.1598046 99.1138576,53.1509861 C99.1754846,53.1157123 99.2371117,53.0804385 99.2987387,53.0451648 C99.3163464,53.0363463 99.3339541,53.0275279 99.342758,53.0187094 C99.4131889,52.9922541 99.4924236,52.9657987 99.5628545,52.9481618 C99.5980699,52.9393434 99.6332854,52.9393434 99.6685008,52.9305249 C99.7125201,52.9217065 99.7565394,52.9217065 99.8005587,52.912888 C99.8269703,52.912888 99.8621857,52.9040696 99.8885973,52.9040696 C100.275967,52.9040696 100.628122,53.0539832 100.909845,53.3273551 C100.927453,53.344992 100.945061,53.3714473 100.971472,53.3890842 C100.997884,53.424358 101.033099,53.4596318 101.059511,53.4949056 C101.077118,53.5213609 101.094726,53.5478162 101.112334,53.5742716 C101.156353,53.6360007 101.191569,53.7065483 101.21798,53.7770959 C101.21798,53.7859143 101.21798,53.7859143 101.226784,53.7947328 C101.261999,53.8740988 101.279607,53.9446464 101.297215,54.0328308 C101.297215,54.0504677 101.306019,54.0681046 101.306019,54.0857415 C101.323627,54.173926 101.33243,54.253292 101.33243,54.3414765 C101.33243,54.3502949 101.33243,54.3679318 101.33243,54.3767503 C101.33243,54.4649348 101.323627,54.5531192 101.306019,54.6413037 C101.306019,54.6413037 101.306019,54.6501221 101.306019,54.6501221 C101.173961,55.3115057 100.584102,55.8053387 99.8885973,55.8053387 C99.1930924,55.8053387 98.6120376,55.3115057 98.4711758,54.6501221 C98.4711758,54.6413037 98.4711758,54.6413037 98.4711758,54.6324853 C98.4535681,54.5443008 98.4447642,54.4561163 98.4447642,54.3591134 C98.4447642,54.3414765 98.4447642,54.332658 98.4447642,54.3150212 C98.4447642,54.2356551 98.4535681,54.1562891 98.4711758,54.0769231 C98.4711758,54.0681046 98.4711758,54.0504677 98.4799797,54.0416493 C98.4975874,53.9711017 98.523999,53.8829172 98.5592144,53.8035512 C98.5592144,53.8035512 98.5592144,53.8035512 98.5592144,53.8035512 Z M61.0195547,58.2833224 C60.9931431,58.2656855 60.9579277,58.2480486 60.9315161,58.2392302 C59.5933294,57.427933 58.7921781,56.0257999 58.7921781,54.4472979 C58.7921781,52.8511589 59.619741,51.413752 61.001947,50.6112733 L71.2584441,44.6676399 C71.6105985,44.4648156 72.0155761,44.3501758 72.4117498,44.3501758 C72.8079235,44.3501758 73.2040972,44.4559971 73.5650554,44.6588214 C74.286972,45.0732884 74.7183611,45.8228565 74.7183611,46.6606089 L74.7183611,66.202288 L61.0195547,58.2833224 Z M51.8987556,50.6818209 C53.9324473,50.6818209 55.5787692,52.3308705 55.5787692,54.3679318 C55.5787692,56.4049931 53.9324473,58.0540428 51.8987556,58.0540428 C49.8650639,58.0540428 48.2187421,56.4049931 48.2187421,54.3679318 C48.2187421,52.3308705 49.8650639,50.6818209 51.8987556,50.6818209 Z M71.2232286,40.5935172 C71.2232286,41.4224513 70.7918395,42.1720193 70.069923,42.5864863 L59.8222297,48.5213013 C58.4400237,49.32378 56.784898,49.32378 55.4026919,48.5213013 C54.0204859,47.7188226 53.1929231,46.2902342 53.1929231,44.6852768 L53.1929231,28.8385271 L70.0611191,38.6005482 C70.0787268,38.6093666 70.0963345,38.6181851 70.1227461,38.635822 C70.8094472,39.0591074 71.2232286,39.7822201 71.2232286,40.5935172 Z M33.930077,38.6093666 L50.8070769,28.8297086 L50.8070769,44.6940952 L50.8070769,44.7029137 C50.8070769,46.3078711 49.9795141,47.7364595 48.5973081,48.5389382 C47.2415136,49.32378 45.6304072,49.3325985 44.2658089,48.5830304 C44.2393973,48.5653936 44.2217896,48.5565751 44.195378,48.5389382 L33.9476848,42.6041232 C33.930077,42.5953048 33.9036655,42.5864863 33.8860577,42.5688494 C33.1993566,42.145564 32.785443,41.4224513 32.785443,40.6023357 C32.7767714,39.7734017 33.2081605,39.0326521 33.930077,38.6093666 Z M54.3374249,78.0542811 C53.6155083,77.6398141 53.1841192,76.8902461 53.1841192,76.0524936 L53.1841192,64.1916821 L53.1841192,64.1828636 C53.1841192,62.5779062 54.011682,61.1493178 55.3938881,60.3468391 C56.0717853,59.9500089 56.8377212,59.7471847 57.603657,59.7471847 C58.3343774,59.7471847 59.0650978,59.9411905 59.7253873,60.3027468 C59.7517989,60.3203837 59.7694066,60.3292022 59.7958182,60.3468391 L73.5034284,68.2834416 L56.6352324,78.0542811 C55.9221197,78.4775666 55.0593414,78.4775666 54.3374249,78.0542811 Z M93.9635994,56.4314485 L77.0865995,66.2111065 L77.0865995,46.6694274 L77.0865995,46.6694274 C77.0865995,45.8316749 77.5179887,45.0909253 78.2399052,44.6676399 C78.5920596,44.4648156 78.9882333,44.3501758 79.3932109,44.3501758 C79.7277576,44.3501758 80.0623042,44.4295418 80.3704393,44.5794554 L87.5455854,48.7241256 L87.5543892,48.7153072 L93.9812071,52.4366919 C94.7031237,52.8511589 95.1345128,53.6007269 95.1345128,54.429661 C95.1169051,55.2762319 94.685516,56.0169815 93.9635994,56.4314485 Z M47.3647676,78.0630996 L30.4877677,68.29226 L44.1689664,60.364476 C45.5511724,59.5619973 47.2062981,59.5619973 48.5885042,60.364476 C49.9707102,61.1669547 50.7982731,62.5955431 50.7982731,64.2005005 L50.7982731,76.0701305 L50.7982731,76.0701305 C50.7982731,76.907883 50.3668839,77.6486325 49.6449674,78.071918 C48.9406586,78.4775666 48.1042919,78.486385 47.3999831,78.0983734 C47.3911792,78.0807365 47.3823753,78.071918 47.3647676,78.0630996 Z M77.0865995,89.8974558 L77.0865995,68.9800989 L95.1433167,58.512602 C95.8652332,58.098135 96.7280115,58.098135 97.449928,58.512602 C98.1718446,58.9270691 98.6032337,59.6766371 98.6032337,60.5143896 L98.6032337,74.3946255 C98.6032337,78.7333016 96.2702108,82.7809688 92.5197664,84.9591253 L80.5465165,91.8992433 C79.8246,92.3137103 78.9618217,92.3137103 78.2399052,91.8992433 C77.5179887,91.4847763 77.0865995,90.7352082 77.0865995,89.8974558 Z M28.1107255,39.0943812 C28.4980953,39.0943812 28.8502497,39.2442948 29.1319732,39.5176667 C29.4929315,39.879223 29.6337933,40.3730561 29.5193431,40.884526 C29.4048929,41.4136328 28.9735038,41.8457368 28.4452722,41.9603766 C27.9434521,42.0750164 27.4416321,41.9339212 27.0806738,41.5723649 C26.7197156,41.2108086 26.5788538,40.7169755 26.693304,40.2055056 C26.8077542,39.6763987 27.2391433,39.2442948 27.7673749,39.129655 C27.8818251,39.1031997 27.9962753,39.0943812 28.1107255,39.0943812 Z M29.2904427,51.5460287 L29.2904427,51.5460287 L29.2904427,46.6341536 C29.2992466,45.814038 29.7306357,45.0732884 30.4437484,44.6676399 C30.7959028,44.4648156 31.1920765,44.3501758 31.5970541,44.3501758 C31.9756201,44.3501758 32.3541861,44.4471787 32.6887328,44.6323661 C32.7063405,44.6411845 32.7239482,44.650003 32.7415559,44.6588214 L42.9892491,50.5936364 C43.0156607,50.6112733 43.0508762,50.6289102 43.0772877,50.6377287 C44.4154745,51.4490258 45.2166258,52.8511589 45.2166258,54.429661 C45.2166258,56.0257999 44.3890629,57.4632068 43.0068569,58.2656855 L29.2992466,66.2111065 L29.2992466,51.5460287 L29.2904427,51.5460287 Z M74.7007534,24.006018 L74.7007534,34.535244 C74.7007534,35.3729965 74.2693643,36.1137461 73.5474477,36.5370315 C72.8431389,36.9426801 72.0067722,36.9514985 71.3024634,36.5634869 C71.2848557,36.5546684 71.2760518,36.54585 71.2584441,36.5370315 L54.3814442,26.766192 L74.7007534,14.9935649 L74.7007534,24.006018 Z M71.2584441,91.8992433 L57.7445188,84.0772806 C57.0754254,83.6539951 56.6704478,82.9308824 56.6704478,82.1284037 C56.6704478,81.2906513 57.101837,80.5499017 57.8237535,80.1354347 L74.7007534,70.3557767 L74.7007534,89.9062742 L74.7007534,89.9062742 C74.7007534,90.7440267 74.2693643,91.4847763 73.5474477,91.9080617 C72.8431389,92.3137103 72.0155761,92.3225287 71.3024634,91.9345171 C71.2936595,91.9168802 71.2760518,91.9080617 71.2584441,91.8992433 Z M98.6736646,49.1297742 L98.6560569,49.1826849 C98.4711758,49.6941548 98.1190214,50.1086218 97.6348091,50.3819937 C96.9040887,50.7964607 96.0325066,50.7964607 95.3017862,50.3819937 L80.8194362,42.0661979 C80.2824007,41.6429125 79.9478541,41.0168027 79.9214425,40.3730561 C79.9214425,40.3466007 79.9126386,40.3289638 79.9126386,40.3025085 C79.9038348,40.1702318 79.8950309,40.0467735 79.8774232,39.9144968 C79.8686193,39.879223 79.8686193,39.8439492 79.8598155,39.8086754 C79.8334039,39.6587618 79.7981884,39.5088482 79.762973,39.3677531 C79.762973,39.3589346 79.7541691,39.3501162 79.7541691,39.3324793 C79.7101498,39.1737472 79.6485228,39.0150152 79.5868958,38.8651016 C79.5780919,38.8386462 79.5604842,38.8033725 79.5428765,38.7769171 C79.4900533,38.6710958 79.4372302,38.5564559 79.3756031,38.459453 C79.3579954,38.4329977 79.3491916,38.4065423 79.3403877,38.380087 C79.32278,38.3536317 79.3051723,38.3183579 79.2699568,38.2830841 C78.9354101,37.7627957 78.4864133,37.3218733 77.9669855,36.9955908 C77.3947346,36.290115 77.0777956,35.4259072 77.0777956,34.5087887 L77.0777956,24.006018 L77.0777956,24.006018 L77.0777956,14.9847465 L87.2374503,20.8666508 C87.3078811,20.910743 87.3871159,20.9371984 87.4575468,20.9636537 L92.4581393,23.8561044 C96.2878185,26.0695346 98.6648607,30.196568 98.6648607,34.6234285 L98.6648607,49.1297742 L98.6736646,49.1297742 Z M52.0132058,25.3816958 L30.4613561,12.9124114 L45.7976805,4.04987189 C49.6273597,1.83644164 54.3814442,1.83644164 58.2111233,4.04987189 L73.5386439,12.9124114 L52.0132058,25.3816958 Z M46.1586388,80.1266162 C46.1762465,80.1354347 46.1938542,80.1442531 46.2202658,80.16189 C46.9069669,80.5851755 47.3207483,81.3171066 47.3207483,82.1284037 C47.3207483,82.9661562 46.8893592,83.7069058 46.1674426,84.1213728 L40.224837,87.5605672 L39.0275121,88.2484061 L39.0275121,88.2484061 L31.9756201,92.3489841 C31.4209769,92.6752666 30.7518835,92.6752666 30.1884365,92.3489841 C29.6337933,92.03152 29.2992466,91.4583209 29.2992466,90.8145743 L29.2992466,82.9397009 L29.2992466,82.9397009 L29.2992466,70.3557767 L46.1586388,80.1266162 Z"
                    id="Shape" fill="url(#radialGradient-2)"></path>
            </g>
            <g id="Group" transform="translate(136.000000, 33.000000)" fill="#FFF">
                <path
                    d="M15.9300755,45 C12.9296782,45 10.234406,44.3069168 7.84425904,42.908149 C5.45411204,41.5093811 3.5597934,39.6317558 2.16130314,37.2374685 C0.750099325,34.8557827 0.0381406436,32.1716606 0,29.1977037 L0,2.45729488 C0,1.68860263 0.216130314,1.09633156 0.661104489,0.655278633 C1.10607867,0.214225707 1.70361542,0 2.47914184,0 C3.21652761,0 3.80135081,0.214225707 4.24632499,0.655278633 C4.69129917,1.09633156 4.90742948,1.70120414 4.90742948,2.45729488 L4.90742948,18.8266592 C6.17878427,17.1128535 7.83154549,15.7266872 9.8784267,14.6807617 C11.9125944,13.6348362 14.1883194,13.1055727 16.6928884,13.1055727 C19.6170044,13.1055727 22.2359952,13.7986558 24.5498609,15.1974237 C26.8637267,16.5961915 28.681764,18.4864184 30.003973,20.8933072 C31.326182,23.300196 32,26.0095211 32,29.0212826 C32,32.0708485 31.3007549,34.8053766 29.8895511,37.2122655 C28.4783472,39.6191543 26.5713151,41.5219826 24.1684545,42.908149 C21.765594,44.2943153 19.0067541,45 15.9300755,45 Z M15.9300755,40.6524783 C18.0913786,40.6524783 20.0238379,40.1358163 21.7401669,39.1024923 C23.4564958,38.0691683 24.8041319,36.683002 25.7830751,34.9565948 C26.7620183,33.2175861 27.2578466,31.2391487 27.2578466,29.0338841 C27.2578466,26.8538225 26.7620183,24.8879866 25.7830751,23.1363764 C24.8041319,21.3847662 23.4564958,19.9985998 21.7401669,18.9904789 C20.0238379,17.9823579 18.0913786,17.4782974 15.9300755,17.4782974 C13.8577672,17.4782974 11.950735,17.9823579 10.2471196,18.9904789 C8.53079062,19.9985998 7.1958681,21.3847662 6.22963846,23.1363764 C5.26340882,24.8879866 4.780294,26.8538225 4.780294,29.0338841 C4.780294,31.2517502 5.26340882,33.2175861 6.22963846,34.9565948 C7.1958681,36.6956035 8.53079062,38.0817698 10.2471196,39.1024923 C11.9634485,40.1232148 13.8450536,40.6524783 15.9300755,40.6524783 Z"
                    id="Shape"></path>
                <path
                    d="M41.392743,45 C40.6285686,45 40.0397784,44.7834395 39.6263725,44.3630573 C39.2129667,43.9426752 39,43.343949 39,42.566879 L39,15.7770701 C39,15 39.2129667,14.4140127 39.6263725,13.9808917 C40.0397784,13.5605096 40.6285686,13.343949 41.392743,13.343949 C42.1569175,13.343949 42.7331802,13.5605096 43.1340586,13.9808917 C43.534937,14.4012739 43.7353763,15 43.7353763,15.7770701 L43.7353763,42.566879 C43.7353763,43.343949 43.534937,43.9426752 43.1340586,44.3630573 C42.7331802,44.7834395 42.1443901,45 41.392743,45 Z M41.1046117,25.3821656 C41.1797764,23.0254777 41.781094,20.910828 42.8960371,19.0509554 C44.0109802,17.1783439 45.4892193,15.7006369 47.3307545,14.6178344 C49.1722897,13.5350318 51.1892092,13 53.3940405,13 C55.3232679,13 56.801507,13.2929936 57.8037031,13.866242 C58.8058991,14.4394904 59.1817226,15.2420382 58.9186461,16.2356688 C58.8058991,16.7707006 58.5678775,17.1656051 58.2045815,17.3949045 C57.8412854,17.6242038 57.4278795,17.7388535 56.9518364,17.7388535 C56.4757933,17.7388535 55.9371129,17.7006369 55.3357953,17.6242038 C53.0933817,17.3566879 51.1140445,17.4968153 49.3852564,18.0573248 C47.6564682,18.6178344 46.2784487,19.5350318 45.2637252,20.8089172 C44.2364743,22.0828025 43.7228488,23.611465 43.7228488,25.3821656 L41.1046117,25.3821656 L41.1046117,25.3821656 Z"
                    id="Shape"></path>
                <path
                    d="M75.3402062,45 C72.4218874,45 69.8080888,44.3046227 67.4988105,42.9012248 C65.1895321,41.4978269 63.3624108,39.6013433 62.0174465,37.1864876 C60.6724822,34.7716318 60,32.0533386 60,29.0316081 C60,25.9719478 60.6978588,23.2283682 62.1062649,20.8135124 C63.5146709,18.3986567 65.4179223,16.5021731 67.8413957,15.0987752 C70.2648692,13.6953773 72.9674861,13 75.9746233,13 C79.0071372,13 81.7351308,13.6953773 84.1332276,15.0987752 C86.5313243,16.5021731 88.4345757,18.3986567 89.8429818,20.8135124 C91.2513878,23.2283682 91.961935,25.9593046 92,29.0316081 L90.0459952,30.0051363 C90.0459952,32.8372185 89.3988898,35.3785065 88.1173672,37.6416436 C86.8231562,39.9047807 85.0848533,41.6874753 82.8770817,43.0150138 C80.6693101,44.3425524 78.1443299,45 75.3402062,45 Z M76.038065,40.6380877 C78.1950833,40.6380877 80.0983347,40.1323588 81.7731959,39.1209008 C83.4480571,38.1094429 84.7676447,36.7186883 85.7446471,34.9612801 C86.7216495,33.203872 87.2164948,31.231529 87.2164948,29.0442513 C87.2164948,26.8190439 86.7216495,24.8467009 85.7446471,23.101936 C84.7676447,21.3571711 83.4353688,19.9664164 81.7731959,18.9423153 C80.0983347,17.9055709 78.1823949,17.3871987 76.038065,17.3871987 C73.9191118,17.3871987 72.0158604,17.9055709 70.3029342,18.9423153 C68.5900079,19.9790597 67.2323553,21.3698143 66.2426646,23.101936 C65.2402855,24.8467009 64.7454401,26.8316871 64.7454401,29.0442513 C64.7454401,31.231529 65.2402855,33.203872 66.2426646,34.9612801 C67.2450436,36.7186883 68.6026963,38.1094429 70.3029342,39.1209008 C72.0158604,40.1197155 73.9191118,40.6380877 76.038065,40.6380877 Z M89.5765266,44.7092058 C88.8406027,44.7092058 88.2442506,44.494271 87.7620936,44.0517582 C87.2799366,43.6092454 87.038858,43.0276571 87.038858,42.2943501 L87.038858,32.811932 L88.1300555,27.8178586 L91.9873117,29.0189648 L91.9873117,42.2817068 C91.9873117,43.0150138 91.7589215,43.5966021 91.3021412,44.039115 C90.8453608,44.494271 90.2743854,44.7092058 89.5765266,44.7092058 Z"
                    id="Shape"></path>
                <path
                    d="M101.5,7.69786251 C100.528517,7.69786251 99.7034221,7.36741768 99.0247148,6.6938186 C98.3326996,6.02021953 98,5.21952629 98,4.29173888 C98,3.32582322 98.3460076,2.5378394 99.0513308,1.92778741 C99.756654,1.31773541 100.568441,1 101.5,1 C102.431559,1 103.243346,1.305026 103.948669,1.92778741 C104.653992,2.55054882 105,3.33853264 105,4.29173888 C105,5.21952629 104.653992,6.02021953 103.975285,6.6938186 C103.296578,7.36741768 102.471483,7.69786251 101.5,7.69786251 Z M101.553232,45 C100.781369,45 100.169202,44.7839399 99.6768061,44.3391103 C99.1977186,43.8942808 98.9448669,43.2842288 98.9448669,42.5216638 L98.9448669,15.9081456 C98.9448669,15.1328712 99.1844106,14.5355286 99.6768061,14.090699 C100.155894,13.6458694 100.781369,13.4298094 101.553232,13.4298094 C102.325095,13.4298094 102.937262,13.6458694 103.403042,14.090699 C103.868821,14.5355286 104.095057,15.1455806 104.095057,15.9081456 L104.095057,42.5216638 C104.095057,43.2969382 103.868821,43.8942808 103.403042,44.3391103 C102.937262,44.7839399 102.325095,45 101.553232,45 Z"
                    id="Shape"></path>
                <path
                    d="M116.44382,45 C115.679343,45 115.09032,44.7835257 114.651685,44.3378432 C114.213051,43.8921608 114,43.3064067 114,42.5678472 L114,15.8396339 C114,15.0628731 114.213051,14.4643852 114.651685,14.0187027 C115.09032,13.5730203 115.691876,13.356546 116.44382,13.356546 C117.1707,13.356546 117.747191,13.5730203 118.185825,14.0187027 C118.62446,14.4643852 118.837511,15.0756068 118.837511,15.8396339 L118.837511,42.5678472 C118.837511,43.3064067 118.62446,43.8921608 118.185825,44.3378432 C117.734659,44.7835257 117.158168,45 116.44382,45 Z M140.581245,45 C139.854365,45 139.277874,44.7707919 138.814175,44.3123756 C138.350475,43.8539594 138.137424,43.2682053 138.137424,42.580581 L138.137424,27.8348587 C138.137424,25.4791086 137.711322,23.569041 136.859118,22.0791882 C136.006914,20.5893355 134.8414,19.4814962 133.362576,18.7174692 C131.883751,17.9661759 130.191876,17.5841624 128.299481,17.5841624 C126.519879,17.5841624 124.91573,17.9407083 123.487035,18.6538002 C122.058341,19.3668922 120.930424,20.3346598 120.103284,21.5443693 C119.263613,22.7540788 118.850043,24.1547951 118.850043,25.7337843 L115.554019,25.7337843 C115.629213,23.3016315 116.268366,21.1368882 117.458946,19.2268205 C118.649525,17.3167529 120.253673,15.8014326 122.271392,14.6808595 C124.276577,13.5602865 126.519879,13 128.988764,13 C131.645635,13 134.026793,13.5730203 136.132239,14.7063271 C138.237684,15.8396339 139.904494,17.5077596 141.145203,19.7107043 C142.373379,21.913649 143,24.6132113 143,27.8093912 L143,42.5551134 C143,43.2427378 142.774417,43.8284918 142.32325,44.2869081 C141.872083,44.7453243 141.257995,45 140.581245,45 Z"
                    id="Shape"></path>
                <path
                    d="M153.44382,32.557779 C152.679343,32.557779 152.09032,32.3294814 151.651685,31.8602029 C151.213051,31.4036077 151,30.8201804 151,30.1352875 L151,2.47322435 C151,1.69954904 151.213051,1.10343856 151.651685,0.659526494 C152.09032,0.215614431 152.691876,0 153.44382,0 C154.1707,0 154.747191,0.215614431 155.185825,0.659526494 C155.62446,1.10343856 155.837511,1.71223224 155.837511,2.47322435 L155.837511,30.1352875 C155.837511,30.8201804 155.62446,31.4036077 155.185825,31.8602029 C154.747191,32.3167982 154.158168,32.557779 153.44382,32.557779 Z M153.44382,45 C152.679343,45 152.09032,44.7843856 151.651685,44.3404735 C151.213051,43.8965614 151,43.3131342 151,42.5775085 L151,15.9554679 C151,15.1817926 151.213051,14.5856821 151.651685,14.14177 C152.09032,13.6978579 152.691876,13.4822435 153.44382,13.4822435 C154.1707,13.4822435 154.747191,13.6978579 155.185825,14.14177 C155.62446,14.5856821 155.837511,15.1944758 155.837511,15.9554679 L155.837511,42.5775085 C155.837511,43.3131342 155.62446,43.8965614 155.185825,44.3404735 C154.747191,44.7843856 154.158168,45 153.44382,45 Z M177.581245,45 C176.854365,45 176.277874,44.7717024 175.814175,44.3151071 C175.350475,43.8585118 175.137424,43.2750846 175.137424,42.5901917 L175.137424,27.903044 C175.137424,25.5566516 174.711322,23.6541714 173.859118,22.1702368 C173.006914,20.6863021 171.8414,19.5828636 170.362576,18.8218715 C168.883751,18.0735626 167.191876,17.6930665 165.299481,17.6930665 C163.519879,17.6930665 161.91573,18.0481962 160.487035,18.7584555 C159.058341,19.4687148 157.930424,20.4326381 157.103284,21.6375423 C156.263613,22.8424464 155.850043,24.2375986 155.850043,25.8103157 L152.554019,25.8103157 C152.629213,23.3878241 153.268366,21.2316798 154.458946,19.3291995 C155.649525,17.4267193 157.253673,15.9174183 159.271392,14.8012965 C161.276577,13.6851747 163.519879,13.1271139 165.988764,13.1271139 C168.645635,13.1271139 171.026793,13.6978579 173.132239,14.8266629 C175.237684,15.9554679 176.904494,17.6169673 178.145203,19.8111612 C179.373379,22.0053551 180,24.6941939 180,27.8776776 L180,42.5648253 C180,43.2497182 179.774417,43.8331454 179.32325,44.2897407 C178.872083,44.746336 178.270527,45 177.581245,45 Z"
                    id="Shape"></path>
                <path
                    d="M190.5,7.69786251 C189.528517,7.69786251 188.703422,7.36741768 188.024715,6.6938186 C187.3327,6.02021953 187,5.21952629 187,4.29173888 C187,3.32582322 187.346008,2.5378394 188.051331,1.92778741 C188.756654,1.31773541 189.568441,1 190.5,1 C191.431559,1 192.243346,1.305026 192.948669,1.92778741 C193.653992,2.55054882 194,3.33853264 194,4.29173888 C194,5.21952629 193.653992,6.02021953 192.975285,6.6938186 C192.296578,7.36741768 191.471483,7.69786251 190.5,7.69786251 Z M190.56654,45 C189.794677,45 189.18251,44.7839399 188.690114,44.3391103 C188.211027,43.8942808 187.958175,43.2842288 187.958175,42.5216638 L187.958175,15.9081456 C187.958175,15.1328712 188.197719,14.5355286 188.690114,14.090699 C189.169202,13.6458694 189.794677,13.4298094 190.56654,13.4298094 C191.338403,13.4298094 191.95057,13.6458694 192.41635,14.090699 C192.882129,14.5355286 193.108365,15.1455806 193.108365,15.9081456 L193.108365,42.5216638 C193.108365,43.2969382 192.882129,43.8942808 192.41635,44.3391103 C191.95057,44.7839399 191.325095,45 190.56654,45 Z"
                    id="Shape"></path>
                <path
                    d="M213.0167,44 C212.019789,44 211.275262,43.4759245 210.783116,42.4152956 L198.227095,16.1116981 C197.962094,15.5876226 197.924237,15.0510692 198.138762,14.5269937 C198.353287,14.0029182 198.757098,13.5786667 199.375435,13.279195 C199.943295,12.9797233 200.511155,12.9298113 201.066397,13.1419371 C201.621638,13.3540629 202.050688,13.7159245 202.353546,14.252478 L214.278611,39.8198742 L211.817884,39.8198742 L223.629376,14.252478 C223.85652,13.6784906 224.272951,13.3041509 224.891288,13.1169811 C225.497005,12.9298113 226.090104,12.9672453 226.670583,13.229283 C227.276301,13.5287547 227.680113,13.9530063 227.869399,14.5020377 C228.058686,15.0510692 228.046067,15.5751447 227.806304,16.0617862 L215.363855,42.4152956 C214.87171,43.4759245 214.076705,44 213.0167,44 Z"
                    id="Path"></path>
                <path
                    d="M245.776496,45 C242.702991,45 239.976496,44.316726 237.609402,42.9628312 C235.242308,41.6089363 233.383333,39.7109529 232.032479,37.3068406 C230.681624,34.8900751 230,32.1316726 230,29.0316331 C230,25.8936338 230.632051,23.1225781 231.908547,20.731119 C233.185043,18.3396599 234.944872,16.4543298 237.175641,15.0624753 C239.40641,13.683274 241.984188,13 244.921368,13 C247.771795,13 250.262821,13.6579676 252.382051,14.986556 C254.501282,16.3024911 256.137179,18.1372084 257.27735,20.4780546 C258.417521,22.8189008 259,25.4760775 259,28.4748913 C259,29.1202056 258.789316,29.651641 258.380342,30.0565441 C257.971368,30.4614472 257.438462,30.6638988 256.80641,30.6638988 L233.271795,30.6638988 L233.271795,26.7034401 L257.091453,26.7034401 L254.674786,28.4242784 C254.711966,26.3111902 254.340171,24.42586 253.547009,22.7303282 C252.753846,21.0474496 251.638462,19.7188612 250.163675,18.7698695 C248.701282,17.8082246 246.953846,17.3274021 244.933761,17.3274021 C242.789744,17.3274021 240.930769,17.8208778 239.332051,18.8204824 C237.733333,19.820087 236.518803,21.2119415 235.676068,22.9833926 C234.833333,24.767497 234.411966,26.7920127 234.411966,29.0442863 C234.411966,31.2965599 234.895299,33.3210755 235.874359,35.0798735 C236.853419,36.8386714 238.19188,38.2178727 239.902137,39.2174773 C241.612393,40.2170819 243.570513,40.7105575 245.788889,40.7105575 C247.065385,40.7105575 248.366667,40.4827995 249.705128,40.0146303 C251.031197,39.5591143 252.097009,38.977066 252.890171,38.293792 C253.336325,37.952155 253.856838,37.7623567 254.439316,37.7497034 C255.021795,37.724397 255.505128,37.8888889 255.876923,38.2431791 C256.434615,38.7366548 256.732051,39.2807434 256.744444,39.8501384 C256.756838,40.4195334 256.508974,40.9256623 255.988462,41.3432187 C254.749145,42.4187426 253.175214,43.2918149 251.254274,43.9877422 C249.32094,44.6457098 247.499145,45 245.776496,45 Z"
                    id="Path"></path>
            </g>
        </g>
    </g>
</svg>