<svg width="1548" height="583" viewBox="0 0 1548 583" fill="none" xmlns="http://www.w3.org/2000/svg">
<path d="M738.096 561.077C732.532 561.077 727.427 560.073 722.742 558.065C718.056 556.057 713.998 553.212 710.525 549.614C707.053 545.974 704.333 541.707 702.451 536.728C700.568 531.833 699.647 526.436 699.647 520.621C699.647 514.805 700.568 509.283 702.451 504.388C704.333 499.493 707.011 495.184 710.441 491.502C713.872 487.862 717.972 484.976 722.658 482.967C727.344 480.959 732.532 479.955 738.054 479.955C743.577 479.955 748.346 480.917 752.697 482.758C757.006 484.641 760.688 487.109 763.617 490.122C766.629 493.134 768.721 496.355 770.018 499.87L760.562 504.179C758.763 499.828 755.877 496.272 752.028 493.594C748.137 490.916 743.493 489.578 738.138 489.578C732.783 489.578 727.804 490.875 723.495 493.468C719.269 496.062 715.922 499.702 713.537 504.346C711.195 508.99 709.981 514.429 709.981 520.579C709.981 526.729 711.195 532.042 713.537 536.686C715.964 541.33 719.227 544.928 723.495 547.564C727.72 550.2 732.615 551.455 738.138 551.455C743.66 551.455 748.22 550.116 752.028 547.439C755.919 544.761 758.763 541.205 760.562 536.812L770.018 541.121C768.721 544.552 766.587 547.815 763.617 550.869C760.604 553.881 756.964 556.392 752.697 558.233C748.388 560.115 743.493 561.036 738.054 561.036L738.138 561.119L738.096 561.077Z" fill="white"/>
<path d="M808.879 561.076C803.356 561.076 798.419 559.821 793.985 557.269C789.55 554.717 786.077 551.161 783.442 546.642C780.848 542.166 779.551 537.061 779.551 531.33C779.551 525.598 780.848 520.578 783.358 516.143C785.91 511.708 789.424 508.236 793.817 505.6C798.252 502.964 803.231 501.709 808.795 501.709C814.359 501.709 819.254 503.006 823.689 505.558C828.124 508.11 831.596 511.583 834.148 516.017C836.7 520.452 837.956 525.556 837.956 531.33C837.956 537.103 836.617 542.207 833.939 546.684C831.262 551.202 827.747 554.675 823.354 557.227C819.003 559.779 814.067 561.034 808.711 561.034H808.837L808.879 561.076ZM808.879 551.621C812.351 551.621 815.573 550.742 818.418 548.985C821.221 547.228 823.522 544.843 825.195 541.747C826.869 538.651 827.664 535.221 827.664 531.413C827.664 527.606 826.869 524.092 825.195 521.163C823.522 518.235 821.304 515.808 818.418 513.967C815.531 512.168 812.393 511.29 808.879 511.29C805.364 511.29 802.101 512.168 799.214 513.967C796.327 515.766 794.11 518.109 792.437 521.163C790.763 524.176 789.885 527.606 789.885 531.413C789.885 535.221 790.763 538.651 792.437 541.747C794.11 544.843 796.411 547.27 799.214 548.985C802.017 550.742 805.239 551.621 808.879 551.621Z" fill="white"/>
<path d="M850.88 559.783V502.926H860.461V514.013L858.871 513.092C860.293 509.536 862.552 506.733 865.648 504.683C868.786 502.675 872.426 501.671 876.652 501.671C880.877 501.671 884.391 502.591 887.613 504.432C890.834 506.273 893.303 508.783 895.185 512.005C897.068 515.226 897.989 518.908 897.989 522.966V559.741H888.031V526.104C888.031 522.966 887.487 520.247 886.358 518.113C885.228 515.979 883.597 514.222 881.588 513.009C879.58 511.796 877.154 511.21 874.476 511.21C871.798 511.21 869.456 511.796 867.364 513.009C865.272 514.222 863.682 515.979 862.469 518.197C861.255 520.414 860.67 523.092 860.67 526.188V559.825H850.88V559.783Z" fill="white"/>
<path d="M912.055 559.783V502.926H921.636V514.013L920.005 513.092C921.427 509.536 923.686 506.733 926.782 504.683C929.92 502.675 933.56 501.671 937.785 501.671C942.011 501.671 945.525 502.591 948.747 504.432C951.968 506.231 954.437 508.783 956.319 512.005C958.202 515.226 959.122 518.908 959.122 522.966V559.741H949.165V526.104C949.165 522.966 948.621 520.247 947.492 518.113C946.362 515.979 944.73 514.222 942.722 513.009C940.714 511.796 938.287 511.21 935.61 511.21C932.932 511.21 930.589 511.796 928.497 513.009C926.406 514.222 924.816 515.979 923.603 518.197C922.389 520.414 921.804 523.092 921.804 526.188V559.825H912.014L912.055 559.783Z" fill="white"/>
<path d="M999.367 561.08C993.845 561.08 989.033 559.825 984.724 557.19C980.415 554.596 977.068 550.998 974.6 546.521C972.131 541.961 970.918 536.94 970.918 531.292C970.918 525.644 972.131 520.54 974.558 516.105C976.984 511.671 980.248 508.198 984.515 505.646C988.657 503.094 993.385 501.839 998.614 501.839C1002.84 501.839 1006.61 502.592 1009.83 504.098C1013.13 505.646 1015.85 507.654 1018.15 510.206C1020.41 512.758 1022.17 515.729 1023.47 518.95C1024.68 522.255 1025.26 525.602 1025.26 529.159C1025.26 529.953 1025.26 530.79 1025.14 531.794C1025.01 532.715 1024.93 533.593 1024.8 534.472H978.198V526.021H1019.16L1014.51 529.87C1015.1 526.23 1014.76 522.967 1013.42 520.08C1012.09 517.193 1010.12 514.892 1007.53 513.219C1004.93 511.545 1001.96 510.667 998.656 510.667C995.351 510.667 992.339 511.545 989.577 513.219C986.816 514.892 984.682 517.319 983.218 520.456C981.67 523.594 981.084 527.318 981.419 531.585C981.126 535.727 981.837 539.367 983.344 542.547C984.933 545.684 987.151 548.111 990.121 549.784C993.008 551.541 996.229 552.336 999.66 552.336C1003.47 552.336 1006.65 551.458 1009.24 549.701C1011.83 547.943 1013.93 545.684 1015.56 542.923L1023.8 547.149C1022.67 549.784 1020.91 552.127 1018.57 554.261C1016.23 556.395 1013.47 558.068 1010.24 559.365C1007.02 560.62 1003.47 561.248 999.576 561.248L999.367 561.122V561.08Z" fill="white"/>
<path d="M1064.34 561.076C1058.78 561.076 1053.89 559.821 1049.49 557.185C1045.18 554.549 1041.75 550.993 1039.28 546.517C1036.82 542.04 1035.6 536.978 1035.6 531.33C1035.6 525.682 1036.82 520.578 1039.28 516.143C1041.75 511.708 1045.14 508.236 1049.49 505.6C1053.8 502.964 1058.74 501.709 1064.34 501.709C1068.11 501.709 1071.54 502.378 1074.8 503.717C1078.03 505.056 1080.91 506.855 1083.34 509.072C1085.81 511.373 1087.56 513.967 1088.69 516.98L1079.95 521.205C1078.61 518.235 1076.6 515.85 1073.84 513.967C1071.08 512.085 1067.94 511.164 1064.39 511.164C1060.83 511.164 1057.82 512.043 1055.06 513.758C1052.3 515.515 1050.08 517.9 1048.49 520.954C1046.9 524.008 1046.06 527.481 1046.06 531.413C1046.06 535.346 1046.86 538.651 1048.49 541.705C1050.08 544.801 1052.3 547.144 1055.06 548.943C1057.82 550.742 1060.96 551.579 1064.39 551.579C1067.82 551.579 1071.16 550.659 1073.84 548.776C1076.6 546.893 1078.61 544.425 1079.95 541.329L1088.69 545.764C1087.56 548.734 1085.72 551.328 1083.34 553.629C1080.87 555.93 1078.03 557.729 1074.8 559.068C1071.58 560.407 1068.11 561.076 1064.34 561.076Z" fill="white"/>
<path d="M1124.63 560.408C1119.06 560.408 1114.84 558.777 1111.78 555.639C1108.77 552.501 1107.26 547.983 1107.26 542.209V512.254H1096.93V502.84H1099.02C1101.57 502.84 1103.58 502.045 1105.05 500.497C1106.51 498.949 1107.26 496.941 1107.26 494.389V489.745H1117.05V502.84H1129.81V512.254H1117.05V541.874C1117.05 543.757 1117.35 545.43 1117.93 546.853C1118.52 548.275 1119.56 549.405 1120.95 550.2C1122.37 550.995 1124.25 551.413 1126.51 551.413C1126.97 551.413 1127.64 551.413 1128.31 551.288C1128.98 551.162 1129.73 551.162 1130.4 551.078V559.739C1129.44 559.948 1128.43 560.157 1127.3 560.199C1126.17 560.283 1125.21 560.325 1124.5 560.325L1124.59 560.408H1124.63Z" fill="white"/>
<path d="M1143.29 493.89V481.213H1153.08V493.89H1143.29ZM1143.29 559.825V502.968H1153.08V559.825H1143.29Z" fill="white"/>
<path d="M1168.35 559.783V502.926H1177.93V514.013L1176.3 513.092C1177.72 509.536 1179.98 506.733 1183.08 504.683C1186.21 502.675 1189.85 501.671 1194.08 501.671C1198.31 501.671 1201.82 502.591 1205 504.432C1208.22 506.231 1210.69 508.783 1212.57 512.005C1214.45 515.226 1215.38 518.908 1215.38 522.966V559.741H1205.46V526.104C1205.46 522.966 1204.92 520.247 1203.79 518.113C1202.66 515.979 1201.03 514.222 1199.02 513.009C1197.01 511.796 1194.58 511.21 1191.9 511.21C1189.23 511.21 1186.88 511.796 1184.79 513.009C1182.7 514.222 1181.11 515.979 1179.9 518.197C1178.68 520.414 1178.1 523.092 1178.1 526.188V559.825H1168.31L1168.35 559.783Z" fill="white"/>
<path d="M1256.62 582.957C1252.6 582.957 1248.88 582.329 1245.49 581.074C1242.06 579.777 1239.17 578.062 1236.75 575.845C1234.32 573.627 1232.44 571.075 1231.23 568.105L1240.43 563.879C1241.43 566.557 1243.32 568.858 1246.08 570.657C1248.84 572.456 1252.4 573.46 1256.54 573.46C1259.76 573.46 1262.73 572.874 1265.32 571.661C1267.92 570.448 1270.01 568.565 1271.56 566.138C1273.1 563.712 1273.9 560.783 1273.9 557.352V544.592L1275.7 546.475C1273.73 550.366 1270.93 553.336 1267.25 555.344C1263.57 557.352 1259.55 558.44 1255.11 558.44C1249.76 558.44 1244.99 557.143 1240.76 554.675C1236.54 552.206 1233.23 548.776 1230.81 544.467C1228.38 540.157 1227.25 535.346 1227.25 530.116C1227.25 524.887 1228.46 519.992 1230.81 515.683C1233.23 511.373 1236.5 508.026 1240.68 505.474C1244.82 503.006 1249.59 501.709 1254.99 501.709C1259.42 501.709 1263.44 502.713 1267.08 504.721C1270.72 506.729 1273.61 509.491 1275.82 512.963L1274.36 515.599V502.922H1283.94V557.352C1283.94 562.247 1282.81 566.682 1280.47 570.531C1278.13 574.422 1274.95 577.434 1270.8 579.652C1266.7 581.869 1262.02 582.999 1256.7 582.999L1256.62 582.915V582.957ZM1255.87 548.901C1259.21 548.901 1262.31 548.023 1264.99 546.349C1267.67 544.676 1269.88 542.375 1271.51 539.572C1273.15 536.769 1273.94 533.547 1273.94 530.033C1273.94 526.518 1273.15 523.464 1271.51 520.578C1269.88 517.691 1267.75 515.432 1264.99 513.716C1262.23 512.043 1259.21 511.164 1255.87 511.164C1252.52 511.164 1249.3 512.043 1246.45 513.716C1243.65 515.39 1241.43 517.691 1239.89 520.494C1238.34 523.297 1237.54 526.518 1237.54 530.033C1237.54 533.547 1238.34 536.727 1239.89 539.572C1241.43 542.375 1243.65 544.676 1246.41 546.349C1249.17 548.023 1252.31 548.901 1255.87 548.901Z" fill="white"/>
<path d="M1354.57 561.077C1349 561.077 1343.9 560.073 1339.21 558.065C1334.53 556.057 1330.47 553.212 1327 549.614C1323.53 545.974 1320.81 541.707 1318.97 536.728C1317.08 531.833 1316.16 526.436 1316.16 520.621C1316.16 514.805 1317.08 509.283 1318.97 504.388C1320.85 499.493 1323.53 495.184 1326.96 491.502C1330.39 487.862 1334.49 484.976 1339.17 482.967C1343.86 480.959 1349.05 479.955 1354.57 479.955C1360.09 479.955 1364.82 480.917 1369.21 482.758C1373.52 484.641 1377.2 487.109 1380.13 490.122C1383.14 493.134 1385.24 496.355 1386.53 499.87L1377.08 504.179C1375.28 499.828 1372.39 496.272 1368.54 493.594C1364.65 490.916 1360.01 489.578 1354.65 489.578C1349.3 489.578 1344.32 490.875 1340.01 493.468C1335.78 496.062 1332.44 499.702 1330.05 504.346C1327.71 508.99 1326.5 514.429 1326.5 520.579C1326.5 526.729 1327.71 532.042 1330.05 536.686C1332.48 541.33 1335.74 544.928 1340.01 547.564C1344.23 550.2 1349.13 551.455 1354.65 551.455C1360.17 551.455 1364.74 550.116 1368.54 547.439C1372.43 544.761 1375.28 541.205 1377.08 536.812L1386.53 541.121C1385.24 544.552 1383.1 547.815 1380.13 550.869C1377.12 553.881 1373.48 556.392 1369.21 558.233C1364.9 560.115 1360.01 561.036 1354.57 561.036L1354.65 561.119L1354.57 561.077Z" fill="white"/>
<path d="M1414.98 561.08C1411.21 561.08 1407.99 560.411 1405.11 558.989C1402.3 557.65 1400 555.683 1398.37 553.299C1396.78 550.872 1395.94 548.069 1395.94 544.889C1395.94 541.71 1396.61 539.116 1397.91 536.689C1399.21 534.263 1401.26 532.171 1404.02 530.497C1406.78 528.824 1410.34 527.611 1414.48 526.941L1435.56 523.469V531.711L1416.69 534.848C1413.05 535.434 1410.38 536.648 1408.7 538.321C1407.03 539.994 1406.24 542.086 1406.24 544.555C1406.24 546.898 1407.2 548.78 1409.04 550.328C1410.92 551.876 1413.26 552.671 1416.03 552.671C1419.58 552.671 1422.76 551.918 1425.35 550.37C1427.95 548.822 1430.04 546.814 1431.59 544.178C1433.14 541.542 1433.85 538.656 1433.85 535.518V521.084C1433.85 517.988 1432.72 515.52 1430.42 513.553C1428.12 511.629 1425.1 510.667 1421.42 510.667C1418.2 510.667 1415.31 511.461 1412.85 513.135C1410.38 514.808 1408.49 516.942 1407.32 519.703L1398.79 515.269C1399.88 512.633 1401.55 510.29 1403.81 508.282C1406.11 506.274 1408.83 504.6 1411.93 503.387C1415.02 502.174 1418.24 501.588 1421.67 501.588C1426.02 501.588 1429.87 502.383 1433.14 504.056C1436.44 505.73 1439.04 508.031 1440.88 510.918C1442.76 513.888 1443.68 517.235 1443.68 521.126V559.742H1434.1V548.989L1435.9 549.575C1434.68 551.876 1433.09 553.801 1431.04 555.474C1429.04 557.148 1426.61 558.487 1423.85 559.491C1421.09 560.495 1418.16 560.955 1414.85 560.955V560.871L1414.98 561.08Z" fill="white"/>
<path d="M1459.03 559.783V502.927H1468.61V513.386L1467.53 511.922C1468.86 508.7 1470.87 506.274 1473.63 504.684C1476.4 503.052 1479.74 502.341 1483.63 502.341H1487.11V511.587H1482.13C1478.11 511.587 1474.89 512.884 1472.38 515.352C1469.91 517.821 1468.7 521.377 1468.7 525.979V559.825H1458.91H1458.99L1459.03 559.783Z" fill="white"/>
<path d="M1522.04 561.08C1516.52 561.08 1511.71 559.825 1507.4 557.19C1503.09 554.596 1499.74 550.998 1497.28 546.521C1494.81 541.961 1493.59 536.94 1493.59 531.292C1493.59 525.644 1494.81 520.54 1497.23 516.105C1499.66 511.671 1502.92 508.198 1507.15 505.646C1511.29 503.094 1516.02 501.839 1521.25 501.839C1525.47 501.839 1529.24 502.592 1532.46 504.098C1535.77 505.646 1538.49 507.654 1540.79 510.206C1543.09 512.758 1544.8 515.729 1546.1 518.95C1547.31 522.255 1547.9 525.602 1547.9 529.159C1547.9 529.953 1547.9 530.79 1547.77 531.794C1547.65 532.715 1547.56 533.593 1547.44 534.472H1500.83V526.021H1541.79L1537.15 529.87C1537.73 526.23 1537.4 522.967 1536.06 520.08C1534.72 517.193 1532.75 514.892 1530.16 513.219C1527.57 511.545 1524.6 510.667 1521.29 510.667C1517.98 510.667 1514.97 511.545 1512.21 513.219C1509.45 514.892 1507.32 517.319 1505.81 520.456C1504.26 523.594 1503.68 527.318 1504.01 531.585C1503.76 535.727 1504.43 539.367 1505.98 542.547C1507.57 545.684 1509.78 548.111 1512.76 549.784C1515.64 551.541 1518.86 552.336 1522.29 552.336C1526.1 552.336 1529.28 551.458 1531.87 549.701C1534.51 547.943 1536.56 545.684 1538.19 542.923L1546.43 547.149C1545.3 549.784 1543.55 552.127 1541.2 554.261C1538.86 556.395 1536.1 558.068 1532.88 559.365C1529.66 560.62 1526.1 561.248 1522.21 561.248L1522 561.122L1522.04 561.08Z" fill="white"/>
<path fill-rule="evenodd" clip-rule="evenodd" d="M669.185 395.613V165.634H714.788V395.613H669.185ZM563.463 399.253C545.891 399.253 530.579 395.362 517.609 387.58C504.64 379.799 494.641 369.339 487.528 356.161C480.416 342.982 476.943 328.422 476.943 312.399C476.943 296.375 480.625 280.979 488.03 268.009C495.435 255.04 505.435 244.832 517.986 237.343C530.537 229.812 544.72 226.13 560.534 226.13C573.713 226.13 585.385 228.222 595.426 232.364C605.551 236.506 614.086 242.363 621.073 249.81C628.059 257.341 633.373 266.001 637.054 275.791C640.694 285.581 642.493 296.25 642.493 307.797C642.493 311.018 642.368 314.24 642.033 317.377C641.698 320.515 641.154 323.235 640.36 325.452H524.261C524.805 329.678 525.851 333.61 527.441 337.25C530.453 344.362 535.139 349.885 541.415 353.818C547.732 357.792 555.305 359.717 564.174 359.717C572.29 359.717 579.194 358.085 584.967 354.864C590.741 351.642 595.259 347.124 598.481 341.517L634.921 358.838C631.699 366.955 626.595 374.025 619.566 380.133C612.538 386.242 604.338 390.927 594.799 394.232C585.26 397.579 574.842 399.253 563.505 399.253V399.169L563.463 399.253ZM527.399 285.33C526.604 287.464 525.935 289.681 525.433 292.024H594.213C593.962 289.43 593.46 286.92 592.665 284.577C590.448 277.799 586.557 272.444 580.993 268.47C575.428 264.495 568.567 262.571 560.534 262.571C552.501 262.571 545.849 264.537 540.201 268.344C534.553 272.151 530.244 277.883 527.441 285.33H527.399ZM748.174 165.634V395.613H793.735V165.634H748.174ZM912.846 399.253C898.663 399.253 885.317 396.701 872.891 391.513C860.423 386.325 849.671 379.046 840.676 369.507C831.681 359.968 824.904 348.755 820.469 335.786L859.085 318.465C864.733 330.807 872.598 340.555 882.639 347.584C892.638 354.696 903.767 358.211 915.941 358.211C922.468 358.211 927.949 357.206 932.635 355.198C937.278 353.19 940.96 350.345 943.596 346.873C946.19 343.316 947.57 339.133 947.57 334.238C947.57 329.008 945.981 324.448 942.759 320.724C939.538 316.959 934.434 314.03 927.572 311.813L883.183 297.254C865.109 291.396 851.554 283.029 842.517 272.193C833.397 261.399 828.836 248.346 828.836 233.117C828.836 219.771 832.141 208.015 838.71 197.89C845.278 187.766 854.483 179.817 866.364 174.21C878.246 168.562 891.801 165.676 907.239 165.676C920.795 165.676 933.346 168.019 944.893 172.662C956.44 177.306 966.439 183.875 974.848 192.41C983.258 200.944 989.617 211.153 993.842 223.076L955.561 240.397C951.336 229.854 944.935 221.612 936.442 215.629C927.907 209.647 918.159 206.718 907.239 206.718C900.922 206.718 895.441 207.722 890.504 209.73C885.693 211.738 881.928 214.625 879.292 218.391C876.656 222.156 875.318 226.465 875.318 231.276C875.318 236.506 877.075 241.15 880.505 245.125C883.936 249.099 889.082 252.153 896.027 254.371L939.454 268.344C957.695 274.243 971.292 282.443 980.329 292.986C989.324 303.529 993.801 316.331 993.801 331.602C993.801 344.781 990.37 356.453 983.467 366.704C976.564 376.912 967.067 384.945 955.059 390.718C942.968 396.492 928.953 399.378 912.971 399.378L912.846 399.253ZM1035.51 461.297C1039.99 462.092 1044.76 462.511 1049.61 462.511V462.594C1059.74 462.594 1068.94 460.712 1077.14 456.946C1085.34 453.181 1092.66 447.491 1099.15 439.751C1105.59 432.095 1111.11 422.556 1115.55 411.218L1186.63 229.812H1137.68L1098.48 336.539L1059.28 229.812H1010.33L1075.68 395.655L1072.62 402.684C1070.2 407.913 1067.06 412.599 1063.21 416.783C1059.4 420.966 1053 423.016 1044.09 423.016C1040.87 423.016 1037.31 422.682 1033.46 422.096C1029.66 421.51 1026.27 420.757 1023.46 419.962V457.365C1026.89 459.164 1030.91 460.503 1035.47 461.339L1035.51 461.297ZM1206.63 395.655V229.77H1249.17V249.936C1253.02 242.656 1258.46 237.134 1265.41 233.243C1273.98 228.473 1284.07 226.13 1295.61 226.13C1308.17 226.13 1319.17 228.766 1328.58 234.038C1338 239.267 1345.36 246.673 1350.59 256.044C1355.82 265.457 1358.5 276.461 1358.5 289.012V395.697H1312.93V298.76C1312.93 292.233 1311.68 286.753 1309.13 282.025C1306.58 277.381 1303.02 273.699 1298.5 271.064C1293.94 268.428 1288.63 267.089 1282.52 267.089C1276.41 267.089 1271.39 268.428 1266.75 271.064C1262.1 273.699 1258.5 277.381 1255.95 282.025C1253.4 286.669 1252.15 292.233 1252.15 298.76V395.697H1206.54L1206.63 395.613V395.655ZM1425.23 387.873C1438.53 395.446 1453.51 399.295 1470.08 399.295V399.211C1482.63 399.211 1494.17 397.077 1504.72 392.684C1515.26 388.333 1524.25 382.351 1531.79 374.611C1539.23 366.955 1544.55 358.211 1547.56 348.504L1508.11 331.184C1505.22 339.509 1500.53 346.036 1493.8 350.931C1487.06 355.826 1479.24 358.252 1470.12 358.252C1462.21 358.252 1455.14 356.286 1448.99 352.479C1442.8 348.672 1437.99 343.275 1434.43 336.372C1430.87 329.468 1429.12 321.603 1429.12 312.692C1429.12 303.78 1430.87 295.915 1434.43 289.012C1437.94 282.109 1442.84 276.712 1448.99 272.904C1455.18 269.097 1462.21 267.131 1470.12 267.131C1479.03 267.131 1486.89 269.599 1493.67 274.452C1500.45 279.306 1505.3 285.874 1508.11 294.2L1547.56 277.214C1544.34 266.88 1538.98 257.885 1531.45 250.312C1523.92 242.74 1514.93 236.757 1504.38 232.532C1493.84 228.306 1482.42 226.172 1470.08 226.172C1453.42 226.172 1438.45 229.854 1425.1 237.385C1411.75 244.832 1401.21 255.124 1393.47 268.219C1385.73 281.314 1381.92 295.999 1381.92 312.441C1381.92 328.883 1385.82 343.651 1393.6 356.83C1401.38 370.009 1411.92 380.384 1425.23 387.999V387.873Z" fill="white"/>
<path d="M136.766 40.2056C136.766 40.2056 136.682 40.2893 136.599 40.2893C136.097 40.5821 135.553 40.9168 135.051 41.2515C137.268 39.8709 139.485 38.5739 141.745 37.2351C140.071 38.1974 138.439 39.1596 136.766 40.1637V40.2056ZM128.44 45.4771C130.616 44.0128 132.833 42.6321 135.051 41.2933C134.256 41.7536 133.503 42.2556 132.708 42.7576C131.243 43.6362 129.863 44.5566 128.44 45.5189V45.4771ZM115.554 54.3884C117.646 52.8404 119.78 51.3343 121.914 49.8281C120.533 50.7904 119.111 51.7527 117.73 52.7567C117.019 53.3006 116.266 53.8445 115.513 54.3884H115.554ZM94.8032 71.207C94.8032 71.207 94.4266 71.5835 94.2174 71.7508C94.6358 71.3743 95.0542 70.9978 95.4726 70.6212C95.2215 70.8304 94.9705 71.0396 94.8032 71.207ZM358.712 302.358L346.621 281.481L321.101 237.259C320.431 236.255 319.762 235.209 319.093 234.288C317.879 232.657 316.624 231.276 315.118 229.896L314.449 229.394C311.52 226.841 308.131 224.875 304.449 223.62L303.655 223.327C300.14 222.198 296.751 221.612 293.404 221.863L291.773 221.988C288.426 222.323 285.204 223.076 282.108 224.415C282.025 224.415 281.899 224.499 281.816 224.499C281.732 224.582 281.606 224.582 281.523 224.624C281.062 224.917 280.519 225.168 280.058 225.377L278.552 226.256C278.552 226.256 278.008 226.674 277.674 226.883C276.67 227.553 275.665 228.222 274.745 229.017L274.661 229.101C273.992 229.686 273.448 230.188 272.862 230.858C272.068 231.569 271.231 232.364 270.603 233.284C269.934 234.079 269.39 234.832 268.846 235.711C268.637 236.046 268.428 236.297 268.177 236.631C267.967 236.841 267.842 237.05 267.675 237.301L229.937 302.525L190.067 233.452C182.159 219.604 169.483 209.563 154.254 204.877C153.877 204.793 153.501 204.668 153.166 204.584C152.831 204.5 152.497 204.375 152.078 204.291C136.222 200.066 119.738 202.157 105.388 210.107L203.245 379.631C203.245 379.631 203.58 380.049 203.747 380.259C203.915 380.426 204.04 380.635 204.166 380.844C204.166 380.928 204.249 381.012 204.333 381.095L204.417 381.179C204.542 381.388 204.71 381.597 204.835 381.807C205.295 382.476 205.714 383.103 206.258 383.647C206.76 384.317 207.345 384.902 207.847 385.488L208.14 385.781C208.14 385.781 208.266 385.907 208.308 385.99L208.391 386.074C208.642 386.283 208.851 386.492 209.061 386.702C209.521 387.12 209.939 387.58 210.399 387.915C211.32 388.71 212.24 389.379 213.286 389.965C213.579 390.174 213.872 390.383 214.165 390.634L215.504 391.304C216.173 391.68 217.01 392.015 217.763 392.391L218.056 392.475L218.348 392.559C218.348 392.559 218.432 392.642 218.474 392.642C218.516 392.642 218.558 392.642 218.558 392.642H218.641C219.729 393.144 220.44 393.354 221.152 393.688C221.779 393.856 222.407 393.981 223.034 394.107C223.327 394.19 223.62 394.19 223.913 394.274C223.997 394.274 224.122 394.274 224.206 394.358C224.289 394.358 224.373 394.358 224.499 394.358L224.875 394.441L225.168 394.525C225.879 394.651 226.423 394.776 227.009 394.818H232.95C233.535 394.818 234.079 394.692 234.665 394.567C234.916 394.483 235.167 394.483 235.418 394.441H235.627C235.627 394.441 235.878 394.358 235.962 394.316H236.171L236.715 394.19C237.552 394.065 238.179 393.898 238.807 393.73C239.518 393.437 240.271 393.186 240.941 392.893C242.405 392.308 243.493 391.806 244.497 391.262L245.334 390.927L246.672 389.923C247.676 389.337 248.722 388.668 249.559 387.873C250.27 387.329 250.982 386.66 251.567 386.032C252.404 385.237 253.115 384.484 253.785 383.689C254.329 383.02 254.789 382.309 255.291 381.639L255.584 381.137C255.793 380.802 256.002 380.551 256.253 380.217C256.253 380.217 256.253 380.217 256.253 380.133L256.337 380.049V379.966C256.337 379.966 256.588 379.715 256.63 379.547L282.15 335.325L294.367 314.239L332.02 379.547C334.782 384.4 338.672 388.208 343.484 390.969L345.324 392.099L346.119 392.475C349.927 394.525 354.194 395.655 358.545 395.78C367.122 396.115 375.447 392.391 380.886 385.948C381.89 384.861 382.601 383.94 383.145 382.978C383.438 382.56 383.647 382.267 383.773 382.016C383.857 381.89 383.94 381.765 384.024 381.681L389.003 373.021L390.09 371.096L390.634 370.092L491.295 195.464L496.608 186.217C515.435 153.543 510.665 112.124 484.391 85.0969C484.224 84.9714 484.099 84.8041 483.889 84.5949C442.387 42.1719 387.329 12.6767 325.703 3.17963C325.41 3.09595 325.201 3.09595 324.908 3.05412C324.615 3.05412 324.322 2.97044 324.029 2.92861C321.77 2.63575 319.427 2.25921 317.126 2.00819C315.578 1.799 313.947 1.63165 312.357 1.4643C312.231 1.4643 312.064 1.4643 311.938 1.4643C310.558 1.25512 309.261 1.12961 307.88 1.04593C307.755 1.04593 307.587 1.04593 307.504 1.04593C305.119 0.836745 302.734 0.669396 300.349 0.502047H299.847C299.513 0.502047 299.178 0.418372 298.801 0.418372C297.086 0.334698 295.245 0.251023 293.446 0.167349H293.153C292.108 0.167349 291.103 0.0836745 290.099 0.0836745C289.263 0.0836745 288.426 0.0836745 287.547 0.0836745C286.878 0.0836745 286.292 0.0836745 285.623 0H282.234C280.519 0 278.803 0 277.046 0.0836745C276.126 0.0836745 275.205 0.0836745 274.243 0.167349C273.49 0.167349 272.737 0.167349 271.984 0.251023C271.273 0.251023 270.52 0.251023 269.808 0.334698C269.181 0.334698 268.553 0.418372 267.967 0.418372C267.34 0.418372 266.712 0.502047 266.085 0.502047C262.403 0.711233 258.721 1.00409 255.04 1.33879C254.705 1.33879 254.37 1.42247 253.994 1.42247C253.91 1.42247 253.785 1.42247 253.701 1.42247C252.822 1.50614 251.902 1.58981 251.065 1.71533C250.982 1.71533 250.982 1.71533 250.94 1.71533C249.726 1.84084 248.555 1.96635 247.342 2.1337C246.463 2.21737 245.626 2.34288 244.706 2.42656C243.451 2.63575 242.112 2.80309 240.815 3.01228C239.937 3.09595 239.058 3.2633 238.179 3.43065C237.426 3.51433 236.631 3.63984 235.836 3.76535C235.251 3.84903 234.665 3.97454 234.037 4.05821C233.745 4.05821 233.452 4.14189 233.159 4.18372C232.741 4.2674 232.322 4.35107 231.904 4.43475C231.025 4.6021 230.188 4.72761 229.31 4.93679C229.059 5.02047 228.808 5.02047 228.599 5.10414C227.971 5.18782 227.344 5.31333 226.758 5.43884C226.214 5.52251 225.628 5.64803 225.084 5.77354C225.001 5.77354 224.917 5.77354 224.791 5.77354C224.122 5.89905 223.411 6.0664 222.741 6.23375C222.741 6.23375 222.449 6.23375 222.365 6.31742H222.281C221.403 6.52661 220.524 6.69396 219.645 6.90314C219.436 6.98682 219.227 6.98682 219.018 7.07049C218.725 7.07049 218.474 7.15417 218.181 7.23784C217.637 7.36335 217.052 7.48886 216.508 7.65621C216.215 7.65621 215.88 7.73989 215.587 7.8654C215.504 7.8654 215.378 7.94907 215.253 7.94907C214.751 8.07459 214.248 8.2001 213.746 8.32561C213.746 8.32561 213.746 8.32561 213.663 8.32561H213.579C213.579 8.32561 213.328 8.40928 213.244 8.40928C211.906 8.74398 210.525 9.07868 209.186 9.45521C208.057 9.74807 206.885 10.1246 205.755 10.4175C205.463 10.5011 205.17 10.5848 204.877 10.6685C204.668 10.7522 204.5 10.794 204.291 10.8358C204.208 10.8358 204.166 10.8358 204.082 10.9195C203.622 11.045 203.203 11.1705 202.701 11.3379C201.906 11.5471 201.07 11.7981 200.275 12.0491C198.811 12.4675 197.304 12.9277 195.882 13.4298C194.167 13.9318 192.451 14.5175 190.82 15.1032C189.146 15.6471 187.556 16.2328 185.925 16.8186H185.841C184.167 17.4461 182.536 18.0737 180.862 18.6594C180.611 18.7431 180.36 18.8268 180.151 18.9523C178.729 19.4961 177.306 20.0819 175.926 20.6258C174.085 21.3788 172.286 22.1319 170.487 22.9268C169.148 23.4707 167.809 24.0982 166.47 24.684C166.345 24.7676 166.177 24.8095 166.052 24.8932C164.588 25.5625 163.123 26.2319 161.659 26.9432C161.575 26.9432 161.45 27.0269 161.366 27.0687C159.776 27.8218 158.187 28.5748 156.597 29.3697C154.923 30.2483 153.25 31.0851 151.576 31.9636C151.493 32.0473 151.325 32.0892 151.2 32.1728C149.401 33.1351 147.602 34.0973 145.845 35.0596C143.878 36.1474 141.912 37.277 139.987 38.4484C140.615 38.0719 141.201 37.6953 141.828 37.3606C140.908 37.9045 139.987 38.4484 139.109 38.9923C138.439 39.3688 137.77 39.7872 137.142 40.1637C137.059 40.2056 136.975 40.2474 136.891 40.2893C136.891 40.2893 136.808 40.3729 136.724 40.3729C136.222 40.6658 135.678 41.0005 135.176 41.3352C135.26 41.2933 135.343 41.2097 135.427 41.1678C135.218 41.2933 135.009 41.4189 134.8 41.5444C134.925 41.4607 135.051 41.377 135.176 41.2933C134.381 41.7536 133.628 42.2556 132.833 42.7576C132.708 42.8413 132.582 42.925 132.457 43.0087C52.8823 92.8368 0 181.281 0 282.025C0 283.531 0 285.037 0.0836745 286.501C0.0836745 287.756 0.0836745 288.97 0.167349 290.225V290.978C0.167349 291.396 0.167349 291.773 0.167349 292.149C0.251023 293.321 0.251023 294.492 0.334698 295.622C0.418372 296.961 0.46021 298.258 0.543884 299.638C0.627558 301.103 0.711233 302.525 0.836745 303.947C0.920419 305.412 1.04593 306.792 1.17144 308.257C1.25512 309.177 1.33879 310.139 1.4643 311.102C1.54798 312.022 1.67349 312.984 1.75716 313.947C6.0664 352.269 18.0318 388.291 36.1055 420.38L8.91133 531.751C5.64803 545.306 18.5757 557.23 31.8381 552.879L130.03 520.162C133.335 522.17 136.808 524.179 140.489 526.229L140.573 526.312C175.926 546.854 216.131 559.95 259.014 563.422C259.893 563.506 260.855 563.547 261.734 563.631C261.943 563.631 262.194 563.631 262.403 563.715C262.654 563.715 262.905 563.715 263.114 563.799C263.826 563.799 264.579 563.882 265.332 563.882H265.666C266.252 563.966 266.88 563.966 267.507 563.966C268.762 564.05 269.976 564.091 271.273 564.175C272.193 564.175 273.113 564.175 274.118 564.259C274.912 564.259 275.749 564.259 276.544 564.342C278.385 564.342 280.309 564.426 282.192 564.426H283.489C284.87 564.426 286.25 564.426 287.589 564.342C288.551 564.342 289.472 564.342 290.434 564.259C291.313 564.259 292.233 564.175 293.112 564.175C294.409 564.091 295.706 564.05 297.002 563.966C297.672 563.966 298.258 563.966 298.885 563.882C299.638 563.882 300.391 563.882 301.144 563.799C301.395 563.799 301.646 563.799 301.856 563.715C301.856 563.715 301.939 563.715 301.981 563.715C302.148 563.715 302.358 563.715 302.525 563.715C303.32 563.715 304.115 563.631 304.91 563.548C336.204 561.079 366.034 553.465 393.563 541.625C395.153 541.039 396.408 540.537 397.119 540.244C400.55 538.654 403.98 537.023 407.369 535.266C407.453 535.266 407.495 535.182 407.62 535.14C410.925 533.466 414.189 531.709 417.452 529.827C419.753 528.572 422.054 527.233 424.271 525.894C426.28 524.764 428.246 523.593 430.17 522.38L430.087 522.212C441.927 514.64 453.348 506.063 464.1 496.524C466.527 494.432 468.828 492.299 471.171 490.165C475.355 486.232 479.455 482.09 483.387 477.907C485.396 475.731 487.446 473.514 489.37 471.338C500.373 458.829 498.449 439.291 484.433 429.375C476.191 423.56 465.774 423.058 456.863 426.907C456.612 426.991 456.361 427.116 456.151 427.242C414.523 477.363 351.726 509.243 281.523 509.243C156.178 509.243 54.5557 407.62 54.5557 282.318C54.5557 157.015 156.22 55.0996 281.565 55.0996C338.129 55.0996 389.881 75.7672 429.585 110.074C430.17 110.576 430.798 111.078 431.384 111.622C431.886 112.04 432.346 112.458 432.848 112.877C433.308 113.253 433.727 113.672 434.145 114.09C434.27 114.174 434.438 114.299 434.521 114.467C446.696 126.516 449.248 145.384 440.588 160.404L358.796 302.441L358.712 302.358Z" fill="white"/>
</svg>
