<svg width="278" height="190" viewBox="0 0 278 190" fill="none" xmlns="http://www.w3.org/2000/svg">
    <path
        d="M166.928 10C169.689 10 171.928 7.76142 171.928 5C171.928 2.23858 169.689 0 166.928 0V10ZM0 10H166.928V0H0V10Z"
        fill="#5F74DD" />
    <path
        d="M166.928 120C169.689 120 171.928 117.761 171.928 115C171.928 112.239 169.689 110 166.928 110V120ZM0 120H166.928V110H0V120Z"
        fill="#5F74DD" />
    <path
        d="M58.9158 45C61.6772 45 63.9158 42.7614 63.9158 40C63.9158 37.2386 61.6772 35 58.9158 35V45ZM0 45H58.9158V35H0V45Z"
        fill="#5F74DD" />
    <path
        d="M58.6809 155C61.4423 155 63.6809 152.761 63.6809 150C63.6809 147.239 61.4423 145 58.6809 145V155ZM-0.234863 155H58.6809V145H-0.234863V155Z"
        fill="#5F74DD" />
    <path
        d="M256.284 80C259.045 80 261.284 77.7614 261.284 75C261.284 72.2386 259.045 70 256.284 70V80ZM0.981934 80H256.284V70H0.981934V80Z"
        fill="#5F74DD" />
    <path
        d="M245.248 190C248.009 190 250.248 187.761 250.248 185C250.248 182.239 248.009 180 245.248 180V190ZM0.256104 190H245.248V180H0.256104V190Z"
        fill="#5F74DD" />
    <ellipse cx="183.621" cy="5" rx="4.90965" ry="5" fill="#5F74DD" />
    <ellipse cx="183.621" cy="115" rx="4.90965" ry="5" fill="#5F74DD" />
    <ellipse cx="272.976" cy="75" rx="4.90965" ry="5" fill="#5F74DD" />
    <ellipse cx="261.94" cy="185" rx="4.90965" ry="5" fill="#5F74DD" />
    <ellipse cx="75.6086" cy="40" rx="4.90965" ry="5" fill="#5F74DD" />
    <ellipse cx="75.3736" cy="150" rx="4.90965" ry="5" fill="#5F74DD" />
</svg>