<svg width="141" height="73" viewBox="0 0 141 73" fill="none" xmlns="http://www.w3.org/2000/svg">
<g clip-path="url(#clip0_4_19)">
<g style="mix-blend-mode:multiply">
<path d="M29.5679 64.8654H44.4756C41.1441 60.9955 39.1994 56.1244 38.9496 51.0241C38.6999 45.9238 40.1594 40.886 43.0968 36.7091C46.0343 32.5321 50.2816 29.4549 55.1659 27.9651C60.0502 26.4753 65.2919 26.6581 70.0605 28.4846C71.58 23.7355 74.1224 19.3773 77.5086 15.7171C80.8948 12.057 85.0424 9.18386 89.6592 7.30024C85.5951 3.86003 80.7513 1.46589 75.5499 0.326426C70.3486 -0.813033 64.9475 -0.663236 59.8173 0.762766C54.6871 2.18877 49.9835 4.8477 46.1163 8.50789C42.2491 12.1681 39.3356 16.7184 37.6297 21.7625C32.629 20.2722 27.2616 20.606 22.484 22.7044C17.7065 24.8027 13.8292 28.5294 11.5433 33.2201H4.67595C3.83662 33.2201 3.03167 33.5535 2.43817 34.147C1.84468 34.7405 1.51125 35.5455 1.51125 36.3848C1.51125 37.2241 1.84468 38.0291 2.43817 38.6226C3.03167 39.2161 3.83662 39.5495 4.67595 39.5495H26.3998C26.8214 39.5399 27.2407 39.6146 27.6329 39.7692C28.0252 39.9239 28.3826 40.1554 28.6842 40.4502C28.9857 40.7449 29.2254 41.097 29.3889 41.4856C29.5525 41.8743 29.6368 42.2917 29.6368 42.7134C29.6368 43.135 29.5525 43.5525 29.3889 43.9411C29.2254 44.3298 28.9857 44.6818 28.6842 44.9765C28.3826 45.2713 28.0252 45.5028 27.6329 45.6575C27.2407 45.8121 26.8214 45.8869 26.3998 45.8772H3.29985C2.46052 45.8772 1.65557 46.2107 1.06207 46.8042C0.468574 47.3977 0.135151 48.2026 0.135151 49.0419C0.135151 49.8813 0.468574 50.6862 1.06207 51.2797C1.65557 51.8732 2.46052 52.2066 3.29985 52.2066H26.3998C27.2392 52.2066 28.0441 52.5401 28.6376 53.1336C29.2311 53.727 29.5646 54.532 29.5646 55.3713C29.5646 56.2107 29.2311 57.0156 28.6376 57.6091C28.0441 58.2026 27.2392 58.536 26.3998 58.536H6.63285C5.79352 58.536 4.98857 58.8695 4.39507 59.463C3.80158 60.0564 3.46815 60.8614 3.46815 61.7007C3.46815 62.5401 3.80158 63.345 4.39507 63.9385C4.98857 64.532 5.79352 64.8654 6.63285 64.8654H29.5679Z" fill="#1BBBE9"/>
</g>
<g style="mix-blend-mode:multiply">
<path d="M107.59 4.79224C103.193 4.78849 98.8385 5.64032 94.7676 7.30024C98.391 10.3615 101.302 14.1774 103.297 18.4809C105.292 22.7844 106.323 27.4718 106.318 32.2152C106.318 50.2464 91.7003 64.8638 73.6691 64.8638H49.5791C51.7287 67.3654 54.394 69.3726 57.3921 70.7476C60.3902 72.1226 63.6502 72.833 66.9486 72.83H107.59C126.378 72.83 141.603 57.6005 141.603 38.8119C141.603 20.0234 126.378 4.79224 107.59 4.79224Z" fill="#622181"/>
</g>
</g>
<defs>
<clipPath id="clip0_4_19">
<rect width="141" height="73" fill="white"/>
</clipPath>
</defs>
</svg>
