<svg width="190" height="25" viewBox="0 0 190 25" fill="none" xmlns="http://www.w3.org/2000/svg">
    <g clip-path="url(#clip0_622_157)">
        <g style="mix-blend-mode:multiply">
            <path
                d="M9.71954 21.8247H14.62C13.5249 20.5526 12.8856 18.9514 12.8035 17.2748C12.7214 15.5982 13.2012 13.9422 14.1668 12.5692C15.1324 11.1961 16.5286 10.1846 18.1341 9.69488C19.7397 9.20516 21.4627 9.26525 23.0303 9.86564C23.5298 8.3045 24.3655 6.87189 25.4786 5.66872C26.5917 4.46555 27.9551 3.52111 29.4728 2.90192C28.1368 1.77106 26.5445 0.984056 24.8348 0.609493C23.125 0.234931 21.3495 0.284172 19.6631 0.752927C17.9767 1.22168 16.4306 2.09573 15.1593 3.2989C13.8881 4.50207 12.9304 5.99787 12.3696 7.65595C10.7258 7.16606 8.96142 7.27579 7.39095 7.96556C5.82047 8.65534 4.54594 9.88036 3.7945 11.4223H1.53708C1.26118 11.4223 0.996576 11.5319 0.801482 11.727C0.606388 11.9221 0.496785 12.1867 0.496785 12.4626C0.496785 12.7385 0.606388 13.0031 0.801482 13.1982C0.996576 13.3933 1.26118 13.5029 1.53708 13.5029H8.67816C8.81674 13.4997 8.95455 13.5243 9.0835 13.5751C9.21245 13.626 9.32994 13.7021 9.42907 13.799C9.52819 13.8959 9.60696 14.0116 9.66073 14.1393C9.71451 14.2671 9.74221 14.4043 9.74221 14.5429C9.74221 14.6815 9.71451 14.8187 9.66073 14.9465C9.60696 15.0743 9.52819 15.19 9.42907 15.2869C9.32994 15.3838 9.21245 15.4599 9.0835 15.5107C8.95455 15.5615 8.81674 15.5861 8.67816 15.5829H1.08473C0.808829 15.5829 0.544224 15.6925 0.34913 15.8876C0.154036 16.0827 0.0444336 16.3473 0.0444336 16.6232C0.0444336 16.8991 0.154036 17.1637 0.34913 17.3588C0.544224 17.5539 0.808829 17.6635 1.08473 17.6635H8.67816C8.95406 17.6635 9.21867 17.7731 9.41376 17.9682C9.60886 18.1633 9.71846 18.4279 9.71846 18.7038C9.71846 18.9797 9.60886 19.2443 9.41376 19.4394C9.21867 19.6345 8.95406 19.7441 8.67816 19.7441H2.18036C1.90445 19.7441 1.63985 19.8537 1.44475 20.0488C1.24966 20.2439 1.14006 20.5085 1.14006 20.7844C1.14006 21.0603 1.24966 21.3249 1.44475 21.52C1.63985 21.7151 1.90445 21.8247 2.18036 21.8247H9.71954Z"
                fill="#1BBBE9" />
        </g>
        <g style="mix-blend-mode:multiply">
            <path
                d="M35.3669 2.07715C33.9217 2.07592 32.4902 2.35593 31.152 2.90158C32.3431 3.90789 33.2999 5.16222 33.9557 6.57688C34.6115 7.99153 34.9504 9.53236 34.9487 11.0916C34.9487 17.0188 30.1437 21.8239 24.2165 21.8239H16.2976C17.0042 22.6462 17.8804 23.306 18.8659 23.758C19.8514 24.21 20.9231 24.4435 22.0073 24.4425H35.3669C41.543 24.4425 46.5476 19.4363 46.5476 13.2601C46.5476 7.08393 41.543 2.07715 35.3669 2.07715Z"
                fill="#622181" />
        </g>
        <g style="mix-blend-mode:multiply">
            <path
                d="M58.4704 5.104C60.2328 5.104 61.7134 5.97401 62.6695 6.95249L60.9071 8.93292C60.1892 8.27986 59.5149 7.86722 58.514 7.86722C56.5347 7.86722 54.9904 9.58487 54.9904 12.4353C54.9904 15.3506 56.3603 17.047 58.4268 17.047C59.6021 17.047 60.4285 16.5472 61.1252 15.7856L62.8875 17.7213C62.3389 18.3817 61.6501 18.9118 60.8712 19.2731C60.0924 19.6343 59.2429 19.8178 58.3843 19.8102C54.7075 19.8102 51.705 17.3143 51.705 12.5438C51.705 7.84486 54.816 5.104 58.4704 5.104Z"
                fill="#1BBBE9" />
        </g>
        <g style="mix-blend-mode:multiply">
            <path d="M64.9966 5.36475H68.216V16.8515H73.8073V19.551H64.9966V5.36475Z" fill="#1BBBE9" />
        </g>
        <g style="mix-blend-mode:multiply">
            <path
                d="M74.7645 12.3941C74.7645 7.76007 77.3969 5.10645 81.2035 5.10645C85.0324 5.10645 87.6435 7.78244 87.6435 12.3941C87.6435 17.0282 85.0324 19.8127 81.2035 19.8127C77.3969 19.8104 74.7645 17.026 74.7645 12.3941ZM84.3581 12.3941C84.3581 9.56606 83.1403 7.86966 81.2035 7.86966C79.2901 7.86966 78.05 9.56606 78.05 12.3941C78.05 15.2446 79.2901 17.0494 81.2035 17.0494C83.1403 17.0472 84.3581 15.2423 84.3581 12.3941Z"
                fill="#1BBBE9" />
        </g>
        <g style="mix-blend-mode:multiply">
            <path
                d="M90.2323 5.36475H93.4305V13.3044C93.4305 16.0888 94.3005 17.0461 95.8907 17.0461C97.4809 17.0461 98.4146 16.0888 98.4146 13.3044V5.36475H101.501V12.979C101.501 17.7439 99.5653 19.8104 95.8885 19.8104C92.2116 19.8104 90.2323 17.7439 90.2323 12.979V5.36475Z"
                fill="#1BBBE9" />
        </g>
        <g style="mix-blend-mode:multiply">
            <path
                d="M104.722 5.36475H108.724C113.075 5.36475 115.86 7.51851 115.86 12.3919C115.86 17.2653 113.075 19.5487 108.92 19.5487H104.722V5.36475ZM108.551 16.96C110.944 16.96 112.576 15.7858 112.576 12.3919C112.576 8.99797 110.945 7.95351 108.551 7.95351H107.941V16.96H108.551Z"
                fill="#1BBBE9" />
        </g>
        <g style="mix-blend-mode:multiply">
            <path
                d="M123.039 5.36475H128.216C131.305 5.36475 133.763 6.49642 133.763 9.93395C133.763 13.2619 131.218 14.7425 128.216 14.7425H126.258V19.551H123.039V5.36475ZM128.021 12.1962C129.782 12.1962 130.631 11.4134 130.631 9.93395C130.631 8.45449 129.717 7.9099 128.021 7.9099H126.258V12.1962H128.021Z"
                fill="#622181" />
        </g>
        <g style="mix-blend-mode:multiply">
            <path
                d="M143.88 19.551L141.166 14.4372H139.42V19.551H136.199V5.36475H141.312C144.315 5.36475 146.792 6.4092 146.792 9.78075C146.792 11.8697 145.768 13.197 144.268 13.8713L147.469 19.551H143.88ZM139.42 11.8943H141.054C142.731 11.8943 143.643 11.1763 143.643 9.78299C143.643 8.38964 142.731 7.9099 141.054 7.9099H139.42V11.8943Z"
                fill="#622181" />
        </g>
        <g style="mix-blend-mode:multiply">
            <path
                d="M148.905 12.3941C148.905 7.76007 151.536 5.10645 155.344 5.10645C159.173 5.10645 161.783 7.78244 161.783 12.3941C161.783 17.0282 159.173 19.8127 155.344 19.8127C151.536 19.8104 148.905 17.026 148.905 12.3941ZM158.499 12.3941C158.499 9.56606 157.28 7.86966 155.344 7.86966C153.43 7.86966 152.189 9.56606 152.189 12.3941C152.189 15.2446 153.43 17.0494 155.344 17.0494C157.28 17.0472 158.499 15.2423 158.499 12.3941Z"
                fill="#622181" />
        </g>
        <g style="mix-blend-mode:multiply">
            <path
                d="M164.372 5.36475H167.57V13.3044C167.57 16.0888 168.44 17.0461 170.03 17.0461C171.62 17.0461 172.553 16.0888 172.553 13.3044V5.36475H175.643V12.979C175.643 17.7439 173.706 19.8104 170.03 19.8104C166.354 19.8104 164.373 17.7439 164.373 12.979L164.372 5.36475Z"
                fill="#622181" />
        </g>
        <g style="mix-blend-mode:multiply">
            <path
                d="M178.861 5.36475H182.864C187.214 5.36475 190 7.51851 190 12.3919C190 17.2653 187.214 19.5487 183.06 19.5487H178.861V5.36475ZM182.69 16.96C185.083 16.96 186.716 15.7858 186.716 12.3919C186.716 8.99797 185.084 7.95351 182.69 7.95351H182.081V16.96H182.69Z"
                fill="#622181" />
        </g>
    </g>
    <defs>
        <clipPath id="clip0_622_157">
            <rect width="190" height="23.9965" fill="white" transform="translate(0 0.501953)" />
        </clipPath>
    </defs>
</svg>