<?xml version="1.0" standalone="no"?>
<!DOCTYPE svg PUBLIC "-//W3C//DTD SVG 20010904//EN"
 "http://www.w3.org/TR/2001/REC-SVG-20010904/DTD/svg10.dtd">
<svg version="1.0" xmlns="http://www.w3.org/2000/svg"
 width="1128.000000pt" height="1128.000000pt" viewBox="0 0 1128.000000 1128.000000"
 preserveAspectRatio="xMidYMid meet">
<metadata>
Created by potrace 1.14, written by Peter Selinger 2001-2017
</metadata>
<g transform="translate(0.000000,1128.000000) scale(0.100000,-0.100000)"
fill="#000000" stroke="none">
<path d="M4995 8549 c-16 -6 -43 -11 -60 -14 -16 -2 -30 -4 -30 -5 0 -1 -9 -3
-20 -5 -11 -2 -60 -16 -110 -30 -49 -15 -97 -28 -106 -30 -9 -2 -38 -12 -65
-23 -27 -11 -80 -32 -119 -47 -75 -30 -267 -123 -275 -134 -3 -3 -23 -15 -45
-26 -22 -11 -42 -22 -45 -25 -3 -3 -30 -21 -60 -40 -219 -136 -462 -361 -645
-595 -149 -191 -297 -457 -375 -675 -13 -36 -26 -68 -29 -72 -3 -4 -50 4 -104
17 -88 21 -133 29 -247 41 -45 5 -276 5 -315 0 -32 -4 -102 -14 -150 -22 -101
-17 -334 -87 -390 -117 -11 -6 -22 -12 -25 -13 -57 -14 -263 -140 -380 -233
-49 -39 -233 -223 -265 -266 -18 -23 -37 -48 -63 -80 -10 -13 -112 -180 -134
-220 l-17 -30 -301 -1 -301 -2 -54 -27 c-96 -47 -145 -132 -139 -243 5 -101
54 -171 149 -213 l50 -23 925 0 925 -1 55 -28 c55 -27 120 -97 120 -130 0 -9
4 -19 10 -22 5 -3 8 -38 7 -79 -2 -55 -9 -82 -27 -112 -45 -72 -105 -117 -170
-128 -19 -3 -467 -6 -995 -6 l-960 0 -50 -24 c-69 -33 -100 -62 -129 -125 -65
-142 10 -301 164 -349 8 -2 452 -5 985 -6 741 -2 975 -5 993 -15 12 -6 22 -9
22 -6 0 12 58 -25 89 -57 51 -51 72 -101 72 -166 0 -73 -3 -92 -11 -92 -4 0
-7 -6 -7 -14 0 -24 -57 -93 -98 -119 -22 -14 -58 -29 -80 -33 -22 -4 -413 -8
-870 -8 -799 -1 -831 -2 -869 -20 -137 -68 -187 -232 -111 -361 28 -48 56 -74
110 -100 39 -20 68 -20 1583 -23 848 -1 1542 1 1542 5 0 5 -14 24 -31 43 -28
31 -63 79 -94 129 -5 9 -12 18 -15 21 -31 29 -189 347 -180 362 0 2 -6 21 -16
43 -15 36 -50 158 -60 210 -2 11 -6 32 -9 47 -25 114 -36 365 -22 513 17 192
98 483 168 608 5 10 24 46 41 80 105 210 300 436 525 609 34 27 67 48 72 48 5
0 11 3 13 8 2 4 35 26 73 49 62 36 98 54 250 124 48 21 263 87 308 94 18 2 43
6 57 9 102 19 362 38 384 28 4 -3 42 -6 85 -8 42 -1 87 -5 101 -8 13 -3 40 -8
60 -11 38 -6 65 -11 103 -21 12 -3 31 -7 42 -9 11 -2 60 -16 108 -32 48 -17
90 -27 92 -23 2 3 20 51 41 105 47 127 146 347 164 365 3 3 16 25 29 50 55
104 208 318 306 430 124 142 378 369 511 458 67 44 149 95 195 121 70 40 267
136 298 146 l23 7 -23 22 c-107 96 -313 231 -489 322 -30 15 -57 28 -60 29 -3
0 -9 3 -15 7 -58 37 -386 149 -510 174 -11 2 -47 11 -80 19 -48 11 -150 14
-515 14 -256 -1 -468 -5 -485 -10z"/>
<path d="M8458 8175 c-2 -2 -39 -6 -83 -9 -44 -4 -96 -9 -115 -11 -56 -7 -95
-14 -95 -15 0 -1 -13 -3 -30 -5 -25 -3 -57 -9 -111 -20 -91 -20 -361 -101
-379 -115 -5 -4 -22 -10 -37 -14 -26 -6 -26 -6 35 -64 116 -108 257 -258 296
-315 8 -12 18 -24 21 -27 14 -11 130 -181 130 -190 0 -6 5 -10 10 -10 6 0 10
-4 10 -10 0 -5 12 -26 26 -47 35 -51 139 -261 176 -353 73 -182 143 -436 162
-585 3 -22 8 -51 10 -64 24 -113 24 -442 1 -671 -5 -52 -51 -291 -65 -335 -43
-140 -85 -265 -96 -287 -8 -15 -15 -31 -15 -35 -7 -52 -214 -440 -241 -451 -4
-2 -8 -10 -8 -18 0 -8 -4 -14 -10 -14 -5 0 -10 -5 -10 -10 0 -6 -5 -16 -10
-23 -6 -7 -47 -59 -92 -117 -87 -112 -300 -329 -387 -395 -29 -22 -58 -45 -65
-51 -28 -26 -155 -114 -165 -114 -6 0 -11 -4 -11 -8 0 -5 -10 -14 -22 -20 -13
-7 -50 -28 -83 -47 -53 -32 -261 -138 -275 -140 -3 -1 -23 -9 -45 -19 -22 -10
-98 -37 -170 -61 -116 -38 -149 -48 -205 -60 -8 -2 -37 -9 -65 -15 -55 -13
-72 -16 -130 -25 -22 -3 -53 -8 -70 -10 -16 -3 -50 -8 -75 -12 -25 -3 -499 -8
-1055 -10 -555 -2 -1040 -4 -1078 -6 l-67 -2 68 -70 c79 -81 128 -126 192
-174 25 -19 47 -38 48 -43 2 -4 7 -8 11 -8 5 0 41 -22 82 -49 126 -83 291
-157 494 -221 33 -11 212 -47 235 -48 38 -2 99 -10 106 -14 11 -6 3595 -1
3644 5 19 2 58 7 85 11 28 3 73 9 100 12 28 3 53 8 56 10 4 2 24 6 44 10 121
19 383 96 490 143 11 5 54 24 95 42 72 32 119 56 225 114 50 27 269 170 292
189 7 6 18 16 25 21 147 117 274 235 386 360 96 108 272 349 272 374 0 5 6 14
13 18 33 22 215 408 255 543 6 19 20 67 32 105 12 39 23 81 26 95 3 14 12 50
20 81 22 87 21 1067 -2 1171 -21 98 -22 103 -24 103 -1 0 -3 7 -5 15 -5 28
-46 165 -54 185 -5 11 -15 36 -21 55 -42 115 -143 331 -197 418 -18 29 -33 57
-33 62 0 6 -4 10 -10 10 -5 0 -10 7 -10 15 0 8 -4 15 -10 15 -5 0 -10 4 -10
10 0 9 -104 160 -141 205 -221 267 -418 447 -649 594 -47 30 -97 62 -112 72
-28 19 -283 149 -293 149 -3 0 -27 9 -53 21 -72 32 -85 37 -112 44 -14 4 -38
13 -55 20 -54 23 -285 83 -384 100 -17 3 -45 7 -63 11 -18 3 -59 7 -93 9 -33
3 -60 5 -60 6 0 7 -410 20 -417 14z"/>
</g>
</svg>
